<?xml version="1.0" encoding="UTF-8"?>
<svg width="148.402882px" height="149.003423px" viewBox="0 0 148.402882 149.003423" version="1.1" xmlns="http://www.w3.org/2000/svg" xmlns:xlink="http://www.w3.org/1999/xlink">
    <title>a</title>
    <g id="Page-1" stroke="none" stroke-width="1" fill="none" fill-rule="evenodd">
        <g id="a" transform="translate(-240.5016, -225.5)">
            <rect id="Rectangle" x="0" y="0" width="631.578947" height="600"></rect>
            <path d="M332.9857,307.468723 C356.277246,266.259477 355.873709,231 332.110464,231 C312.560403,231 275.109991,261.816372 254.929138,308.699386 C253.872286,311.154307 252.735566,313.774334 252.403105,314.521505 C252.070594,315.268676 251.474229,316.753654 251.077755,317.821182 C250.681281,318.88871 249.931305,320.897102 249.411102,322.284987 C238.741326,350.74846 254.620089,370.382401 276.020296,365.265561 C279.799319,364.362154 280.923987,363.946183 284.48025,362.135427 C292.09164,358.261078 306.748877,345.250148 312.670054,337.113081 C313.311169,336.23136 314.849253,334.222475 316.088018,332.64829 C319.272355,328.600949 320.323428,327.202714 322.561404,324.036108 C366.037212,235.528074 364.56482,238.759539 363.49152,241.107953 C361.301949,245.90074 346.60915,278.436493 344.735691,282.641548 C339.9214,293.446943 335.941349,302.462775 332.638964,310.081357 C326.919802,323.277108 323.235612,332.278647 320.781791,339.119501 C318.599135,345.204806 317.390005,349.579897 316.586883,353.67603 C316.335969,354.956966 315.955152,356.853972 315.741282,357.891436 C313.50627,368.734288 323.775967,372.575122 335.254793,365.189661 C339.996971,362.138384 345.251843,358.441464 347.909656,356.285215 C349.561342,354.946123 351.832905,353.112202 352.958067,352.210274 C354.082735,351.308346 355.885069,349.784432 356.96232,348.823854 C358.039572,347.863276 360.227661,345.941627 361.825016,344.554235 C363.421877,343.166349 366.115746,340.720793 367.811392,339.119501 C369.507038,337.518702 372.881536,334.374275 375.310661,332.132762 C377.739292,329.891248 382.109544,325.68225 385.022222,322.779816" id="Path" stroke="#000000" stroke-width="11"></path>
        </g>
    </g>
</svg>