<?xml version="1.0" encoding="UTF-8"?>
<svg width="205.367105px" height="305.008521px" viewBox="0 0 205.367105 305.008521" version="1.1" xmlns="http://www.w3.org/2000/svg" xmlns:xlink="http://www.w3.org/1999/xlink">
    <title>C</title>
    <g id="Page-1" stroke="none" stroke-width="1" fill="none" fill-rule="evenodd">
        <g id="C" transform="translate(-212.9232, -68.9938)">
            <rect id="up" x="0" y="0" width="631.578947" height="600"></rect>
            <path d="M416.689083,107.823214 C416.016304,102.633205 420.341312,82.2576108 412.556298,76.5870446 C404.771283,70.9164784 388.336252,66.495359 370.075107,73.8959284 C351.813961,81.2964979 325.287245,96.6743046 303.085536,120.990461 C280.883828,145.40273 251.473773,191.728372 236.960968,219.888981 C222.352051,247.953478 218.795933,268.905739 215.816483,289.858001 C212.933145,310.906374 212.837033,332.146969 219.27649,345.986995 C225.812058,359.73091 240.517085,370.975931 254.645445,372.802046 C268.773805,374.62816 290.879402,363.383139 304.238872,357.039794 C317.598341,350.79256 329.708364,338.778649 334.898374,335.126419" id="Path" stroke="#000000" stroke-width="2" stroke-linecap="round" stroke-linejoin="round"></path>
        </g>
    </g>
</svg>