<?xml version="1.0" encoding="UTF-8"?>
<svg width="205.00666px" height="289.063344px" viewBox="0 0 205.00666 289.063344" version="1.1" xmlns="http://www.w3.org/2000/svg" xmlns:xlink="http://www.w3.org/1999/xlink">
    <title>E</title>
    <g id="Page-1" stroke="none" stroke-width="1" fill="none" fill-rule="evenodd">
        <g id="E" transform="translate(-212.9936, -83.0028)">
            <rect id="Rectangle" x="0" y="0" width="631.578947" height="600"></rect>
            <path d="M417,132.995842 C415.396769,127.697336 413.39273,108.902634 407.380612,100.904889 C401.368495,92.9071435 391.047694,87.0088063 380.827094,84.9093981 C370.706697,82.7100182 356.478019,84.8094263 346.25742,87.9085527 C336.03682,90.9077072 326.217029,97.1059598 319.603699,103.304212 C312.99037,109.502465 309.683706,116.600464 306.677647,124.898125 C303.671589,133.195786 300.865934,143.392911 301.366944,153.190149 C301.968155,163.087359 305.77583,175.78378 309.984312,183.981469 C314.192794,192.27913 319.303094,197.477664 326.617836,202.77617 C334.032781,208.074677 356.578221,213.77307 354.073172,215.672535 C351.568123,217.472027 327.219048,211.373747 311.487341,214.072986 C295.855836,216.772225 273.5108,224.170139 260.083738,231.767997 C246.556474,239.365855 237.838904,248.263347 230.724565,259.460191 C223.510024,270.657034 219.501946,285.952722 217.097099,298.949058 C214.692252,312.045366 211.886598,326.441308 216.395686,338.038039 C220.904774,349.63477 231.826787,363.730796 244.352031,368.529443 C256.877276,373.428062 277.318474,370.02902 291.647354,367.029866 C305.976234,364.130683 318.701882,357.632515 330.225107,351.034375 C341.748332,344.436235 355.576201,331.239955 360.586299,327.341054" id="Path" stroke="#000000" stroke-width="2" stroke-linecap="round" stroke-linejoin="round"></path>
        </g>
    </g>
</svg>