<?xml version="1.0" encoding="UTF-8"?>
<svg width="141.014794px" height="146.036247px" viewBox="0 0 141.014794 146.036247" version="1.1" xmlns="http://www.w3.org/2000/svg" xmlns:xlink="http://www.w3.org/1999/xlink">
    <title>e</title>
    <g id="Page-1" stroke="none" stroke-width="1" fill="none" fill-rule="evenodd">
        <g id="e" transform="translate(-244.9998, -226.9814)">
            <rect id="Rectangle" x="0" y="0" width="631.578947" height="600"></rect>
            <path d="M246,340.460561 C258.738176,334.808339 301.86221,317.120209 322.495402,306.547229 C343.062249,295.907752 359.184003,285.135282 369.533771,276.889687 C379.949884,268.644093 383.996909,264.654289 384.859389,257.140159 C385.788215,249.626028 382.072913,236.260186 374.974034,231.671911 C367.941499,227.083637 352.615881,227.283127 342.465147,229.610513 C332.314413,232.004395 322.694436,238.255088 314.135974,245.702721 C305.511167,253.150355 297.748841,263.390851 290.782651,274.362812 C283.816461,285.401269 276.186824,298.634118 272.338833,311.80047 C268.490842,324.966823 265.638022,343.652404 267.761051,353.427423 C269.88408,363.135945 278.707921,367.258743 285.010665,370.118102 C291.313408,372.977461 298.014219,372.113004 305.378477,370.583579 C312.742736,369.120651 321.433887,365.396834 329.129868,361.340534 C336.82585,357.217737 347.839065,348.573162 351.554366,345.979789" id="Path" stroke="#000000" stroke-width="2" stroke-linecap="round" stroke-linejoin="round"></path>
        </g>
    </g>
</svg>