<?xml version="1.0" encoding="UTF-8"?>
<svg width="202.006577px" height="324.665538px" viewBox="0 0 202.006577 324.665538" version="1.1" xmlns="http://www.w3.org/2000/svg" xmlns:xlink="http://www.w3.org/1999/xlink">
    <title>Ё</title>
    <g id="Page-1" stroke="none" stroke-width="1" fill="none" fill-rule="evenodd">
        <g id="Ё" transform="translate(-214.9937, -49.3998)">
            <rect id="Rectangle" x="0" y="0" width="631.578947" height="600"></rect>
            <path d="M416,138.312973 C414.420462,133.088314 412.446039,114.555559 406.522771,106.669281 C400.599502,98.7830021 390.431225,92.9668717 380.361669,90.8967236 C370.390834,88.727997 356.372433,90.7981451 346.302876,93.854078 C336.23332,96.8114325 326.558649,102.923298 320.043054,109.035164 C313.527459,115.14703 310.269661,122.146102 307.308027,130.328116 C304.346393,138.51013 301.582201,148.565135 302.075807,158.225827 C302.668133,167.985096 306.419537,180.504563 310.565824,188.587999 C314.712112,196.770013 319.74689,201.896094 326.953533,207.120753 C334.258898,212.345413 356.471154,217.964386 354.003125,219.837378 C351.535097,221.61179 327.54586,215.598503 312.046641,218.260122 C296.646144,220.921741 274.63133,228.216548 261.402698,235.708513 C248.075344,243.200478 239.486605,251.973962 232.477404,263.014752 C225.369482,274.055542 221.420637,289.13805 219.051329,301.953253 C216.682022,314.867034 213.91783,329.062335 218.360281,340.497439 C222.802733,351.932543 233.563337,365.832109 245.903479,370.563876 C258.243621,375.394221 278.382733,372.042553 292.499856,369.085199 C306.616979,366.226423 319.154563,359.818821 330.507494,353.312642 C341.860425,346.806462 355.483942,333.794102 360.419999,329.949541" id="Path" stroke="#000000" stroke-width="2" stroke-linecap="round" stroke-linejoin="round"></path>
            <path d="M338.7,52.65 C338.670483,52.6204833 338.629517,52.5990601 338.572034,52.5430275 C338.557534,52.5288938 338.539369,52.5183941 338.52276,52.506167 C338.504417,52.4926634 338.486009,52.4793286 338.468066,52.4664806 C338.455324,52.4573565 338.442816,52.4484779 338.430732,52.4399586 C338.407154,52.423336 338.385191,52.4080813 338.366252,52.3950402 C338.326446,52.3676308 338.3,52.35 338.3,52.35" id="Path" stroke="#000000" stroke-width="2" stroke-linecap="round" stroke-linejoin="round"></path>
            <path d="M383,50.6 C382.957312,50.6 382.896157,50.5980934 382.824602,50.5921311 C382.80565,50.590552 382.785968,50.5886883 382.765707,50.5865002 C382.732624,50.5829275 382.697996,50.5784898 382.662476,50.5730133 C382.626966,50.5675386 382.591222,50.5538891 382.554465,50.547407 C382.522318,50.5417379 382.489935,50.5357137 382.457735,50.5293867 C382.404221,50.5188717 382.351214,50.5075208 382.300645,50.4955751 C382.266103,50.4874155 382.232698,50.4789785 382.201046,50.4703408 C382.173053,50.4627019 382.146431,50.4549062 382.121605,50.4470067 C382.073188,50.4316008 382.031601,50.4158004 382,50.4" id="Path" stroke="#000000" stroke-width="2" stroke-linecap="round" stroke-linejoin="round"></path>
        </g>
    </g>
</svg>