<?xml version="1.0" encoding="UTF-8"?>
<svg width="144.015091px" height="176.667946px" viewBox="0 0 144.015091 176.667946" version="1.1" xmlns="http://www.w3.org/2000/svg" xmlns:xlink="http://www.w3.org/1999/xlink">
    <title>ё</title>
    <g id="Page-1" stroke="none" stroke-width="1" fill="none" fill-rule="evenodd">
        <g id="ё" transform="translate(-243.9997, -197.35)">
            <rect id="Rectangle" x="0" y="0" width="631.578947" height="600"></rect>
            <path d="M245,340.803489 C258.013101,335.033512 302.067869,316.97688 323.146382,306.183629 C344.157117,295.322497 360.626823,284.3256 371.199968,275.908223 C381.840889,267.490845 385.975259,263.41792 386.856355,255.747245 C387.805226,248.076571 384.009739,234.432273 376.757646,229.748409 C369.57333,225.064546 353.916943,225.268192 343.547128,227.644065 C333.177314,230.08782 323.349711,236.468735 314.606534,244.071528 C305.795581,251.674321 297.865722,262.128161 290.749183,273.328704 C283.632643,284.597129 275.838338,298.105662 271.907297,311.546313 C267.976256,324.986965 265.061864,344.061829 267.230714,354.040494 C269.399564,363.951278 278.413847,368.159967 284.852621,371.078896 C291.291395,373.997825 298.136828,373.115358 305.660027,371.55407 C313.183226,370.060665 322.061957,366.259268 329.924038,362.118462 C337.78612,357.909773 349.03703,349.085103 352.832518,346.437702" id="Path" stroke="#000000" stroke-width="2" stroke-linecap="round" stroke-linejoin="round"></path>
            <path d="M335.6,198.5 C335.6,198.5 335.58863,198.5 335.573853,198.5 C335.55545,198.5 335.531765,198.5 335.518173,198.5 C335.508374,198.5 335.498418,198.5 335.488754,198.5 C335.477777,198.5 335.466982,198.5 335.456909,198.5 C335.424787,198.5 335.4,198.5 335.4,198.5" id="Path" stroke="#000000" stroke-width="2" stroke-linecap="round" stroke-linejoin="round"></path>
            <path d="M367.564926,198.564377 C367.564926,198.522408 367.554746,198.513344 367.5308,198.484759 C367.527258,198.480531 367.523415,198.475875 367.519259,198.470623 C367.513459,198.463294 367.50705,198.454802 367.5,198.444687 C367.487401,198.426609 367.495206,198.403181 367.480908,198.389598 C367.474218,198.383242 367.467383,198.377501 367.46044,198.372487 C367.440862,198.358349 367.420431,198.35 367.4,198.35" id="Path" stroke="#000000" stroke-width="2" stroke-linecap="round" stroke-linejoin="round"></path>
        </g>
    </g>
</svg>