<?xml version="1.0" encoding="UTF-8"?>
<svg width="461.870808px" height="315.056139px" viewBox="0 0 461.870808 315.056139" version="1.1" xmlns="http://www.w3.org/2000/svg" xmlns:xlink="http://www.w3.org/1999/xlink">
    <title>T</title>
    <g id="Page-1" stroke="none" stroke-width="1" fill="none" fill-rule="evenodd">
        <g id="T" transform="translate(-84.8068, -60.6673)">
            <rect id="up" x="0" y="0" width="631.578947" height="600"></rect>
            <path d="M287.356392,87.5160651 C276.650303,113.544628 241.781851,202.238185 223.414525,244.080328 C205.047199,286.020692 192.376691,317.353189 177.348879,338.863586 C162.419288,360.275763 146.016383,367.740558 133.542317,372.553387 C121.06825,377.464437 110.558604,372.946271 102.602704,367.937 C94.6468033,362.92773 88.5571017,346.819487 85.8069139,342.595984" id="Path" stroke="#000000" stroke-width="2" stroke-linecap="round" stroke-linejoin="round"></path>
            <path d="M369.567363,95.3737446 C359.745263,118.062794 331.359396,185.245953 311.027651,231.311599 C290.597684,277.377245 257.988315,348.292802 247.380447,371.767619" id="Path" stroke="#000000" stroke-width="2" stroke-linecap="round" stroke-linejoin="round"></path>
            <path d="M465.627494,92.0342308 C458.555582,107.160264 438.813163,147.430871 422.70492,182.495765 C406.596677,217.658881 380.469893,274.823499 368.879816,302.62004 C357.38796,330.416581 354.343109,338.176039 353.45912,349.373233 C352.575131,360.570426 357.584402,366.365464 363.37944,369.90142 C369.2727,373.339155 378.505473,373.142713 388.622235,370.392525 C398.837219,367.642337 413.177484,360.275763 424.472898,353.400293 C435.768312,346.524824 450.992566,333.363211 456.2965,329.33615" id="Path" stroke="#000000" stroke-width="2" stroke-linecap="round" stroke-linejoin="round"></path>
            <path d="M202.10057,144.975346 C198.17173,141.734053 183.831465,133.188827 178.232868,125.527589 C172.732493,117.768131 165.56236,106.76738 168.901874,98.6150374 C172.339609,90.5609159 185.894106,82.3103525 198.564614,76.9081979 C211.235122,71.5060433 225.673608,68.5594135 245.023144,66.1038887 C264.4709,63.6483638 283.918657,62.9608169 315.054712,62.2732699 C346.190766,61.585723 393.140401,61.585723 431.544809,61.782165 C470.047439,61.880386 526.720952,62.9608169 545.677603,63.2554799" id="Path" stroke="#000000" stroke-width="2" stroke-linecap="round" stroke-linejoin="round"></path>
        </g>
    </g>
</svg>