<?xml version="1.0" encoding="UTF-8"?>
<svg width="244.311996px" height="147.984685px" viewBox="0 0 244.311996 147.984685" version="1.1" xmlns="http://www.w3.org/2000/svg" xmlns:xlink="http://www.w3.org/1999/xlink">
    <title>t</title>
    <g id="Page-1" stroke="none" stroke-width="1" fill="none" fill-rule="evenodd">
        <g id="t" transform="translate(-194.0258, -226.1795)">
            <rect id="low" x="0" y="0" width="631.578947" height="600"></rect>
            <path d="M257.433341,227.179732 C252.0912,239.906596 235.750535,279.606032 225.328124,303.750412 C214.905713,327.894792 194.689378,371.260402 195.003621,372.046011 C195.317865,372.779246 215.691322,326.53307 227.056464,308.411691 C238.47398,290.237939 249.158261,275.939857 263.299221,263.265367 C277.440181,250.538503 301.008447,232.678994 311.954598,232.260003 C322.900748,231.893385 334.580134,237.340274 329.028498,260.803793 C323.476861,284.267311 279.16852,370.108176 278.644781,373.09349 C278.068668,376.078804 311.326111,300.712724 325.833688,278.715675 C340.341266,256.771 353.644243,248.443546 365.690246,241.268318 C377.736249,234.09309 391.877209,232.155255 398.004958,235.82143 C404.185081,239.487605 404.342203,252.476338 402.56149,263.265367 C400.83315,274.054396 393.657922,285.733781 387.582547,300.555602 C381.507171,315.377423 368.518438,340.988273 366.004489,352.301041 C363.438167,363.613809 367.523333,366.284879 372.236987,368.275089 C376.898266,370.265298 387.006434,367.070488 394.076914,364.242296 C401.147394,361.466478 407.327517,356.543329 414.555119,351.463058 C421.730347,346.382788 433.51448,336.641237 437.337777,333.708297" id="Path" stroke="#000000" stroke-width="2" stroke-linecap="round" stroke-linejoin="round"></path>
        </g>
    </g>
</svg>