<?xml version="1.0" encoding="UTF-8"?>
<svg width="166.918675px" height="286.008636px" viewBox="0 0 166.918675 286.008636" version="1.1" xmlns="http://www.w3.org/2000/svg" xmlns:xlink="http://www.w3.org/1999/xlink">
    <title>y</title>
    <g id="Page-2" stroke="none" stroke-width="1" fill="none" fill-rule="evenodd">
        <g id="y" transform="translate(-232.2175, -222.8218)">
            <rect id="low" x="0" y="0" width="631.578947" height="600"></rect>
            <path d="M305.556937,223.822027 C303.06488,229.92327 295.674642,247.453602 290.776461,260.601351 C285.792347,273.663167 280.292635,289.217041 275.824119,302.278857 C271.441536,315.340673 265.941824,329.089953 264.309097,339.058181 C262.67637,349.112343 263.020102,356.76038 266.11369,362.346025 C269.207278,367.93167 274.449191,373.861047 282.956558,372.486119 C291.463925,371.111191 305.127272,364.580283 317.157892,354.096457 C329.188512,343.698563 344.656453,324.70737 355.054346,309.669095 C365.452239,294.716753 372.240946,278.30355 379.373385,264.124604 C386.505824,250.031592 398.880176,222.447099 398.106779,224.76729 C397.333382,227.087481 384.701231,256.132835 374.733003,278.045751 C364.764775,299.958666 349.039036,331.152345 338.469277,356.416648 C327.813584,381.766883 319.048418,409.695108 311.142582,429.717498 C303.150813,449.653954 297.822967,463.918832 290.690528,476.379117 C283.558089,488.75347 276.511583,499.495095 268.347948,504.307343 C260.098379,509.119591 247.122496,508.51806 241.364985,505.338539 C235.607474,502.159018 231.654556,494.253182 233.802881,485.05835 C235.951206,475.863519 239.302593,466.754621 254.083069,449.911753 C268.949479,433.068885 299.197895,405.570324 322.915403,383.915208 C346.632912,362.260092 384.271566,330.550814 396.559985,319.895122" id="Path" stroke="#000000" stroke-width="2" stroke-linecap="round" stroke-linejoin="round"></path>
        </g>
    </g>
</svg>