<?xml version="1.0" encoding="UTF-8"?>
<svg width="284.014293px" height="270.002933px" viewBox="0 0 284.014293 270.002933" version="1.1" xmlns="http://www.w3.org/2000/svg" xmlns:xlink="http://www.w3.org/1999/xlink">
    <title>Б</title>
    <g id="Page-1" stroke="none" stroke-width="1" fill="none" fill-rule="evenodd">
        <g id="Б" transform="translate(-173.9857, -107.9962)">
            <rect id="Rectangle" x="0" y="0" width="631.578947" height="600"></rect>
            <path d="M328.903506,131 C312.143689,164.883576 253.295311,293.492768 228.47062,334.54878 C203.645929,375.481128 187.516181,377.336069 180.081375,376.965081 C172.646569,376.594093 172.898596,352.603532 183.987798,332.446514 C195.077,312.165834 229.100688,272.099124 246.616587,255.528324 C264.006472,238.957524 273.457496,236.236945 288.831163,232.77439 C304.204829,229.435497 324.493028,230.548462 338.606558,235.247644 C352.720088,239.946826 367.337672,246.748273 373.638355,260.969482 C379.939038,275.190691 382.711339,302.272819 376.536669,320.451234 C370.235986,338.753311 355.870429,362.125559 336.212298,370.287296 C329.071948,373.296771 307.564149,377.178494 296.488033,376.965081 C277.070444,376.590945 268.564707,374.290725 261.046888,370.287296" id="Path" stroke="#000000" stroke-width="2" stroke-linecap="round" stroke-linejoin="round"></path>
            <path d="M234,169 C235.133258,163.554704 231.733484,145.98125 240.925466,136.20447 C250.117448,126.551446 252.887634,114.794557 288.900056,110.586829 C324.912479,106.502857 428.920384,111.576883 457,111.70064" id="Path" stroke="#000000" stroke-width="2" stroke-linecap="round" stroke-linejoin="round"></path>
        </g>
    </g>
</svg>