<?xml version="1.0" encoding="UTF-8"?>
<svg width="288.46264px" height="280.994856px" viewBox="0 0 288.46264 280.994856" version="1.1" xmlns="http://www.w3.org/2000/svg" xmlns:xlink="http://www.w3.org/1999/xlink">
    <title>б</title>
    <g id="Page-1" stroke="none" stroke-width="1" fill="none" fill-rule="evenodd">
        <g id="б" transform="translate(-180.0272, -93.0755)">
            <rect id="Rectangle" x="0" y="0" width="631.578947" height="600"></rect>
            <path d="M289.836939,270.048301 C287.941638,265.373225 288.447052,245.914798 278.465132,241.745136 C268.483212,237.575473 244.855123,235.553818 229.94542,244.903971 C215.035717,254.380477 196.714471,278.51398 189.133266,297.972406 C181.552061,317.304479 177.635106,349.5246 184.710897,361.275468 C191.786688,373.026335 216.046544,377.069645 231.335308,368.477612 C246.624071,360.011933 252.689035,352.683435 276.569831,310.102334 C300.450626,267.647586 342.526314,146.727367 374.367375,113.243711 C387.741731,99.2324814 391.027022,96.7018318 401.436117,95.5695526 C410.118886,94.6250594 426.108013,94.0755238 434.980051,94.0755238 C441.515749,94.0755238 463.921643,94.1915628 467.489843,94.0755238" id="Path" stroke="#000000" stroke-width="2" stroke-linecap="round" stroke-linejoin="round"></path>
        </g>
    </g>
</svg>