<?xml version="1.0" encoding="UTF-8"?>
<svg width="240.016266px" height="285.008163px" viewBox="0 0 240.016266 285.008163" version="1.1" xmlns="http://www.w3.org/2000/svg" xmlns:xlink="http://www.w3.org/1999/xlink">
    <title>В</title>
    <g id="Page-1" stroke="none" stroke-width="1" fill="none" fill-rule="evenodd">
        <g id="В" transform="translate(-195.9882, -93.9998)">
            <rect id="Rectangle" x="0" y="0" width="631.578947" height="600"></rect>
            <path d="M360.44158,95 C344.437903,130.721443 288.073734,262.74227 264.263386,309.250495 C240.453038,355.836885 228.664964,364.356879 217.57949,374.04935 C206.572083,383.819985 200.639013,373.033204 197.906678,367.796143 C195.174343,362.559082 199.311879,350.208999 201.18548,342.861481 C202.981014,335.513963 204.152015,332.934516 208.757951,323.867366 C213.363887,314.722051 218.360157,303.388114 228.899164,288.302253 C239.516237,273.216391 256.847048,252.111819 272.226191,233.430364 C287.605334,214.827074 307.90268,192.393695 321.174022,176.604348 C334.52343,160.736836 341.393301,149.246568 352.166508,138.459787 C362.939715,127.673005 375.508456,117.433379 385.735196,111.805493 C395.961935,106.177607 405.642208,102.582013 413.44888,104.848801 C421.255551,107.037423 429.686757,117.120719 432.653292,125.249888 C435.697894,133.379056 436.244361,141.27373 431.482291,153.623813 C426.798288,166.052061 412.277879,188.48544 404.158941,199.584882 C396.040002,210.684324 389.950798,215.608725 382.76866,220.376795 C375.664589,225.144865 368.092118,226.161011 361.300314,228.115138 C354.586576,230.069265 340.378434,231.085411 342.252035,232.179722 C344.125636,233.274034 364.735249,231.710732 372.541921,234.60284 C380.348592,237.416783 385.422929,240.465221 389.170131,249.141546 C392.839267,257.81787 396.118069,274.076207 394.790935,286.660786 C393.463801,299.167199 388.857864,311.595448 381.207326,324.336356 C373.478721,337.077265 360.20738,354.195419 348.653506,363.028073 C337.099632,371.860727 321.642422,375.612652 311.884083,377.254118 C302.20381,378.97375 295.802339,376.394302 290.259602,373.111369 C284.716866,369.9066 280.267063,363.575229 278.783795,357.869177 C277.222461,352.084961 280.81353,342.001665 281.203863,338.796897" id="Path" stroke="#000000" stroke-width="2" stroke-linecap="round" stroke-linejoin="round"></path>
        </g>
    </g>
</svg>