<?xml version="1.0" encoding="UTF-8"?>
<svg width="163.986859px" height="270.005593px" viewBox="0 0 163.986859 270.005593" version="1.1" xmlns="http://www.w3.org/2000/svg" xmlns:xlink="http://www.w3.org/1999/xlink">
    <title>в</title>
    <g id="Page-1" stroke="none" stroke-width="1" fill="none" fill-rule="evenodd">
        <g id="в" transform="translate(-233.9999, -103.2967)">
            <rect id="Rectangle" x="0" y="0" width="631.578947" height="600"></rect>
            <path d="M235,280.274409 C252.952805,267.646589 316.92869,224.20993 342.716829,204.203202 C368.428897,184.196475 380.60029,174.535432 389.500622,160.310116 C398.324882,146.008729 397.488098,127.903782 395.966674,118.699166 C394.44525,109.418478 386.685987,106.299559 380.296005,104.854206 C373.906024,103.408853 365.46212,104.702063 357.550715,109.874906 C349.639309,115.047748 341.49969,122.883082 332.827572,136.043401 C324.231526,149.127648 318.069758,162.135825 305.746223,188.532534 C293.498758,215.005314 268.623474,267.646589 259.190644,294.423654 C249.757814,321.200719 247.399607,336.491031 249.149245,349.118852 C250.822811,361.746672 261.548851,366.767372 269.612399,370.114505 C277.675947,373.537709 288.630201,372.700926 297.454461,369.277722 C306.278721,365.854517 315.787622,357.334542 322.481888,349.65135 C329.252226,342.044229 333.284,333.372112 337.848272,323.330713 C342.412544,313.213242 348.650383,301.878632 350.019665,289.326883 C351.465018,276.775134 350.400021,257.453047 346.140034,247.868075 C341.956117,238.283103 333.284,233.414546 324.916167,231.81705 C316.548334,230.295626 303.616229,235.696682 296.009108,238.663459 C288.478059,241.554165 282.24022,247.792004 279.425585,249.617713" id="Path" stroke="#000000" stroke-width="2" stroke-linecap="round" stroke-linejoin="round"></path>
        </g>
    </g>
</svg>