<?xml version="1.0" encoding="UTF-8"?>
<svg width="316.000013px" height="302.000568px" viewBox="0 0 316.000013 302.000568" version="1.1" xmlns="http://www.w3.org/2000/svg" xmlns:xlink="http://www.w3.org/1999/xlink">
    <title>Г</title>
    <g id="Page-1" stroke="none" stroke-width="1" fill="none" fill-rule="evenodd">
        <g id="Г" transform="translate(-158, -71)">
            <rect id="Rectangle" x="0" y="0" width="631.578947" height="600"></rect>
            <path d="M348,104 C337.831481,129.47863 304.720765,217.855002 287.325033,257.039958 C269.845265,296.224914 254.046243,321.367193 243.373499,339.02565 C232.616719,356.684106 229.927523,357.440897 222.868386,362.990698 C215.809249,368.456411 208.918186,372.240366 201.102712,371.988102 C193.371276,371.735839 183.286794,366.186038 176.227657,361.224852 C169.252557,356.179579 161.85727,345.248154 159,342.052814" id="Path" stroke="#000000" stroke-width="2" stroke-linecap="round" stroke-linejoin="round"></path>
            <path d="M255.171012,173 C251.971359,169.206177 238.835943,158.752087 236.057297,150.405676 C233.278651,141.974958 236.646707,130.25626 238.499137,122.752922 C240.351568,115.33389 243.130213,111.034224 247.17188,105.554257 C251.213546,100.07429 256.770838,94.3414023 262.917539,90.0417362 C269.064241,85.7420701 274.368928,82.6227045 283.883685,79.9248748 C293.398441,77.1427379 303.250004,74.7821369 319.921878,73.7704508 C336.593753,72.7587646 358.401912,74.0233723 383.914932,73.6861436 C409.427953,73.433222 458.180556,72.2529215 473,72" id="Path" stroke="#000000" stroke-width="2" stroke-linecap="round" stroke-linejoin="round"></path>
        </g>
    </g>
</svg>