<?xml version="1.0" encoding="UTF-8"?>
<svg width="125.000059px" height="146.020428px" viewBox="0 0 125.000059 146.020428" version="1.1" xmlns="http://www.w3.org/2000/svg" xmlns:xlink="http://www.w3.org/1999/xlink">
    <title>г</title>
    <g id="Page-1" stroke="none" stroke-width="1" fill="none" fill-rule="evenodd">
        <g id="г" transform="translate(-252.9999, -226.9808)">
            <rect id="Rectangle" x="0" y="0" width="631.578947" height="600"></rect>
            <path d="M254,263.587313 C259.370985,259.530056 277.037532,244.844548 286.137135,239.111467 C295.281126,233.378385 301.673042,230.600046 308.686395,229.188826 C315.744136,227.777606 323.24576,226.939694 328.261638,230.732348 C333.233129,234.569102 338.95922,243.301026 338.692891,252.07705 C338.470949,260.853075 332.256586,272.848444 326.752436,283.432594 C321.248286,294.016744 311.127752,305.923913 305.66799,315.714252 C300.208228,325.50459 295.458679,334.853923 293.993865,342.174627 C292.529051,349.45123 294.437748,354.743305 297.01227,359.417971 C299.542403,364.092637 304.647059,368.238096 309.352219,370.222624 C314.012992,372.251253 319.250812,372.339454 325.021292,371.501542 C330.747384,370.66363 337.716348,368.635001 343.841934,365.151052 C349.967521,361.711203 356.27066,355.80172 361.819199,350.730148 C367.323349,345.614475 374.469866,337.235357 377,334.545219" id="Path" stroke="#000000" stroke-width="2" stroke-linecap="round" stroke-linejoin="round"></path>
        </g>
    </g>
</svg>