<?xml version="1.0" encoding="UTF-8"?>
<svg width="255.870252px" height="280.167714px" viewBox="0 0 255.870252 280.167714" version="1.1" xmlns="http://www.w3.org/2000/svg" xmlns:xlink="http://www.w3.org/1999/xlink">
    <title>Д</title>
    <g id="Page-1" stroke="none" stroke-width="1" fill="none" fill-rule="evenodd">
        <g id="Д" transform="translate(-188.0099, -94.999)">
            <rect id="Rectangle" x="0" y="0" width="631.578947" height="600"></rect>
            <path d="M375.497699,136.096836 C371.797699,144.696836 367.297699,157.896836 353.497699,187.696836 C339.597699,217.596836 308.797699,287.196836 292.597699,315.196836 C276.397699,343.296836 268.897699,346.696836 256.297699,355.896836 C243.597699,364.996836 227.097699,368.596836 216.597699,369.996836 C206.197699,371.496836 197.997699,368.796836 193.697699,364.396836 C189.297699,359.996836 187.397699,348.296836 190.597699,343.596836 C193.897699,338.896836 202.297699,335.496836 213.097699,336.096836 C223.797699,336.696836 244.697699,343.796836 255.097699,347.196836 C265.397699,350.596836 267.797699,352.296836 275.097699,356.396836 C282.397699,360.496836 289.597699,369.196836 298.997699,371.796836 C308.497699,374.396836 319.797699,375.296836 331.697699,372.196836 C343.597699,368.996836 356.997699,365.596836 370.297699,352.796836 C383.597699,339.896836 399.897699,318.696836 411.597699,294.896836 C423.297699,271.096836 436.197699,233.696836 440.497699,209.996836 C444.897699,186.296836 442.697699,168.996836 437.697699,152.496836 C432.697699,136.096836 422.497699,120.496836 410.397699,111.096836 C398.397699,101.696836 380.297699,97.3968356 365.497699,96.2968356 C350.597699,95.0968356 335.197699,97.4968356 321.297699,104.196836 C307.297699,110.996836 291.597699,124.196836 281.697699,136.996836 C271.897699,149.796836 264.697699,167.796836 262.297699,180.896836 C259.797699,194.096836 261.497699,206.096836 266.997699,215.696836 C272.497699,225.396836 290.697699,234.996836 295.397699,238.896836" id="Path" stroke="#000000" stroke-width="2" stroke-linecap="round" stroke-linejoin="round"></path>
        </g>
    </g>
</svg>