<?xml version="1.0" encoding="UTF-8"?>
<svg width="165.996103px" height="277.981901px" viewBox="0 0 165.996103 277.981901" version="1.1" xmlns="http://www.w3.org/2000/svg" xmlns:xlink="http://www.w3.org/1999/xlink">
    <title>ะด</title>
    <g id="Page-1" stroke="none" stroke-width="1" fill="none" fill-rule="evenodd">
        <g id="ะด" transform="translate(-233.004, -227.0198)">
            <rect id="Rectangle" x="0" y="0" width="631.578947" height="600"></rect>
            <path d="M369.942037,298.23946 C370.877303,294.399416 374.930119,283.709564 375.657548,274.991626 C376.281058,266.169904 377.112405,252.989212 373.890936,245.724264 C370.669466,238.355531 362.875587,233.892777 356.432648,231.194368 C349.989708,228.495959 341.987993,228.599744 335.337216,229.637593 C328.582521,230.675443 323.074847,232.647358 316.320153,237.421466 C309.565458,242.195575 301.667661,249.149168 294.912966,258.593601 C288.26219,268.038033 280.364393,281.11494 276.103739,293.776706 C271.843085,306.542258 268.621616,322.628929 269.556881,334.875556 C270.388228,347.122182 275.584147,360.925584 281.19574,367.256467 C286.911251,373.58735 294.809048,374.00249 303.538192,372.860856 C312.163417,371.823006 324.84146,366.633757 333.362767,360.510444 C341.987993,354.38713 347.807422,348.575172 354.873872,336.43233 C361.940322,324.185703 369.006772,305.400623 375.865385,287.342038 C382.723998,269.283453 395.298122,229.845163 396.025551,228.080819 C396.752979,226.420259 391.245305,250.602158 380.437794,277.274896 C369.526364,304.051419 343.962442,358.642314 330.868726,388.221032 C317.671091,417.799749 309.773295,437.934033 301.459824,454.850984 C293.146354,471.871719 287.223006,482.146432 280.780066,490.03409 C274.233208,497.921748 268.517697,499.997447 262.490431,502.073147 C256.359247,504.148846 248.877123,504.875341 244.200796,502.592071 C239.524469,500.308802 235.159897,495.119553 234.32855,488.5811 C233.601121,482.042647 233.601121,474.154989 239.524469,463.465137 C245.551735,452.6715 255.320063,439.594593 270.28431,424.130632 C285.352475,408.770456 308.318437,386.975612 329.517787,371.096511 C350.821055,355.21741 386.672896,335.913405 398,328.856027" id="Path" stroke="#000000" stroke-width="2" stroke-linecap="round" stroke-linejoin="round"></path>
        </g>
    </g>
</svg>