<?xml version="1.0" encoding="UTF-8"?>
<svg width="385.171437px" height="291.74952px" viewBox="0 0 385.171437 291.74952" version="1.1" xmlns="http://www.w3.org/2000/svg" xmlns:xlink="http://www.w3.org/1999/xlink">
    <title>Ж</title>
    <g id="Page-1" stroke="none" stroke-width="1" fill="none" fill-rule="evenodd">
        <g id="Ж" transform="translate(-122.9997, -83.9164)">
            <rect id="Rectangle" x="0" y="0" width="631.578947" height="600"></rect>
            <path d="M174.4,151.461384 C178.1,146.661384 186.8,132.361384 196.5,122.461384 C206.2,112.561384 221.2,97.5613842 232.7,92.0613842 C244.2,86.5613842 257.2,85.5613842 265.7,89.5613842 C274.2,93.5613842 280.6,104.161384 283.5,115.861384 C286.5,127.661384 288.3,138.861384 283.6,160.061384 C278.9,181.261384 265.6,217.961384 255.5,243.161384 C245.4,268.361384 232,295.161384 222.9,311.261384 C213.9,327.461384 210.7,331.461384 201,340.161384 C191.3,348.861384 175.5,360.761384 164.5,363.761384 C153.6,366.861384 141.9,363.761384 135.2,358.361384 C128.4,353.061384 125.8,336.261384 124,331.761384" id="Path" stroke="#000000" stroke-width="2" stroke-linecap="round" stroke-linejoin="round"></path>
            <path d="M124,331.261384 C125.9,335.861384 127.8,353.561384 135.3,358.661384 C142.8,363.761384 155.2,368.661384 169.3,362.061384 C183.3,355.561384 199.8,343.761384 219.7,319.261384 C239.7,294.861384 270,244.461384 289,215.261384 C308.1,186.061384 321.1,165.461384 334.2,144.161384 C347.3,122.761384 370.2,73.9613842 367.6,87.2613842 C365,100.661384 333.3,183.561384 318.9,224.361384 C304.5,265.061384 290,306.961384 281.3,331.561384 C272.5,356.161384 256.8,383.061384 266.3,372.061384 C275.8,360.961384 318.6,295.061384 338.2,265.061384 C357.7,235.161384 367.7,216.861384 383.7,192.461384 C399.7,168.061384 418,135.461384 434.1,118.361384 C450.3,101.361384 468.6,92.9613842 480.5,89.9613842 C492.4,86.9613842 501.6,94.2613842 505.6,100.261384 C509.6,106.361384 504.7,121.961384 504.5,126.261384" id="Path" stroke="#000000" stroke-width="2" stroke-linecap="round" stroke-linejoin="round"></path>
            <path d="M504.1,126.961384 C504.3,122.561384 509.2,106.561384 505.3,100.461384 C501.5,94.2613842 492.5,87.0613842 480.7,90.0613842 C469,92.9613842 450.3,101.161384 434.7,117.861384 C419,134.661384 400.6,165.061384 387,190.661384 C373.3,216.361384 359.5,250.461384 352.8,271.861384 C346,293.261384 346.6,305.861384 346.6,319.161384 C346.5,332.361384 348.7,343.761384 352.5,351.361384 C356.2,358.961384 362.1,362.561384 369.3,364.761384 C376.4,366.961384 386.8,367.261384 395.2,364.761384 C403.6,362.161384 412.4,355.261384 419.7,349.461384 C427,343.661384 432.4,337.961384 438.9,329.861384 C445.4,321.661384 455.3,305.461384 458.5,300.561384" id="Path" stroke="#000000" stroke-width="2" stroke-linecap="round" stroke-linejoin="round"></path>
        </g>
    </g>
</svg>