<?xml version="1.0" encoding="UTF-8"?>
<svg width="230.0009px" height="152.01722px" viewBox="0 0 230.0009 152.01722" version="1.1" xmlns="http://www.w3.org/2000/svg" xmlns:xlink="http://www.w3.org/1999/xlink">
    <title>ж</title>
    <g id="Page-1" stroke="none" stroke-width="1" fill="none" fill-rule="evenodd">
        <g id="ж" transform="translate(-200.9997, -223.9768)">
            <rect id="Rectangle" x="0" y="0" width="631.578947" height="600"></rect>
            <path d="M232.430441,258.961241 C234.911184,256.20914 241.69188,247.457457 247.259768,242.338548 C252.882785,237.219639 259.828864,230.779722 266.003156,228.192746 C272.177448,225.660813 279.28891,225.385603 284.36065,227.036864 C289.377263,228.633083 294.228493,232.155773 296.37847,237.880144 C298.528446,243.549473 298.252808,253.016702 297.205384,261.162922 C296.157959,269.254101 293.952855,276.739817 290.038794,286.59234 C286.124734,296.444864 278.903017,310.425539 273.776149,320.278063 C268.649281,330.130586 263.687796,339.102437 259.22246,345.762522 C254.757123,352.367566 251.61485,356.165466 246.98413,360.128492 C242.353411,364.091518 237.006033,367.779334 231.493272,369.485637 C225.925383,371.19194 218.097262,371.46715 213.687053,370.256226 C209.221717,369.045301 206.740975,364.972191 204.756381,362.220089 C202.826914,359.467988 202.441021,355.174709 202,353.743617" id="Path" stroke="#000000" stroke-width="2" stroke-linecap="round" stroke-linejoin="round"></path>
            <path d="M202,355.580025 C202.716277,357.23118 203.928438,362.955182 206.352759,365.59703 C208.777081,368.183839 210.815715,371.210956 216.435734,371.210956 C222.110851,371.155917 231.863236,370.770648 240.238166,365.266799 C248.557997,359.817989 250.376238,358.937373 266.464919,338.297939 C282.553599,317.658505 323.381381,260.088245 336.715151,241.375158 C350.04892,222.662072 346.412438,224.258188 346.522634,225.964381 C346.632831,227.670574 345.530866,231.303115 337.321231,251.777433 C329.111596,272.196713 305.694852,328.170857 297.154628,348.645175 C288.669502,369.119493 286.079886,372.862111 286.355377,374.623342 C286.57577,376.384574 289.05519,372.091572 298.752476,359.157527 C308.449763,346.27852 331.811409,314.631388 344.594197,297.239226 C357.376984,279.847063 367.515057,264.711478 375.504299,254.694473 C383.493541,244.732506 387.460613,241.430197 392.584747,237.247271 C397.708882,233.064346 401.951445,231.027922 406.249106,229.541883 C410.546767,228.110882 414.734232,227.560497 418.370715,228.441113 C422.007197,229.321729 426.525252,231.743423 428.233296,234.880616 C429.886243,237.962772 428.343493,245.117776 428.398591,247.1542" id="Path" stroke="#000000" stroke-width="2" stroke-linecap="round" stroke-linejoin="round"></path>
            <path d="M429.239694,247.274989 C429.074709,245.027352 431.549482,236.74947 428.359775,233.679526 C425.170067,230.609583 417.965727,226.16913 410.211438,228.80051 C402.402153,231.377069 391.843121,237.955519 381.724048,249.248524 C371.54998,260.59635 356.811331,281.866671 349.222027,296.558542 C341.687717,311.250413 338.443014,327.038692 336.298211,337.454571 C334.208402,347.87045 334.923337,353.681414 336.463196,359.218275 C338.05805,364.700317 341.082772,368.757028 345.647354,370.620922 C350.156941,372.484816 357.086306,372.539636 363.740696,370.291999 C370.450081,368.044362 379.359265,362.5075 385.73868,357.080279 C392.063101,351.653058 399.157451,340.963077 401.797209,337.728673" id="Path" stroke="#000000" stroke-width="2" stroke-linecap="round" stroke-linejoin="round"></path>
        </g>
    </g>
</svg>