<?xml version="1.0" encoding="UTF-8"?>
<svg width="184.843484px" height="269.099729px" viewBox="0 0 184.843484 269.099729" version="1.1" xmlns="http://www.w3.org/2000/svg" xmlns:xlink="http://www.w3.org/1999/xlink">
    <title>З</title>
    <g id="Page-1" stroke="none" stroke-width="1" fill="none" fill-rule="evenodd">
        <g id="З" transform="translate(-226.9957, -106.91)">
            <rect id="Rectangle" x="0" y="0" width="631.578947" height="600"></rect>
            <path d="M317.796009,138.429489 C323.889259,133.997995 334.044674,122.380294 348.14278,116.511558 C362.12141,110.642822 375.622139,105.612477 388.047588,109.205581 C400.473037,112.678914 408.83632,121.302363 410.389501,134.357305 C412.062158,147.292478 409.553173,158.311328 396.291395,174.001214 C383.029618,189.810869 362.838263,204.303053 344.200089,213.046271 C325.561915,221.78949 304.534232,214.483513 303.220002,217.717306 C301.786296,221.070869 325.681391,222.1488 337.389987,229.694317 C349.098583,237.239835 357.939768,240.114318 361.524033,255.325122 C365.108297,270.535927 362.240886,287.064203 355.191833,305.748341 C348.262255,324.312709 341.093727,334.732709 326.637194,348.506273 C312.300138,362.160066 301.547345,371.861445 283.267598,374.256847 C264.98785,376.77202 246.110725,373.059146 235.118982,360.722824 C224.127238,348.386502 229.503635,322.037077 228.189404,312.335697" id="Path" stroke="#000000" stroke-width="2" stroke-linecap="round" stroke-linejoin="round"></path>
        </g>
    </g>
</svg>