<?xml version="1.0" encoding="UTF-8"?>
<svg width="222.007608px" height="333.999283px" viewBox="0 0 222.007608 333.999283" version="1.1" xmlns="http://www.w3.org/2000/svg" xmlns:xlink="http://www.w3.org/1999/xlink">
    <title>ли</title>
    <g id="Page-1" stroke="none" stroke-width="1" fill="none" fill-rule="evenodd">
        <g id="ли" transform="translate(-204.9925, -224.0011)">
            <rect id="Rectangle" x="0" y="0" width="631.578947" height="600"></rect>
            <path d="M295.110504,262.524512 C303.614999,257.219816 322.882996,243.692839 337.367214,236.266264 C351.851433,228.707071 356.502328,225.789488 367.531596,225.126401 C378.560863,224.463314 386.799593,226.319958 392.51355,232.818211 C398.094625,239.183847 399.024804,244.753778 395.835619,257.352433 C392.779316,269.951087 389.191482,281.356185 376.833387,295.678866 C364.475293,309.86893 351.452784,317.958592 334.045146,328.700603 C316.504625,339.442613 295.110504,344.614692 289.396546,349.256302 C283.549706,353.897912 295.509152,347.267041 305.076709,351.776033 C314.644266,356.417642 332.583436,360.396165 337.367214,372.331732 C342.01811,384.399917 335.639739,389.837231 328.331188,411.98434 C321.022638,434.131448 312.38526,458.267818 300.691579,483.199892 C288.997898,508.131966 284.74565,521.79156 269.862784,536.379475 C255.1128,550.834774 238.502458,560.383228 226.543012,555.874235 C214.450682,551.497861 198.637637,539.960146 209.799787,514.364984 C220.961937,488.902441 239.033989,467.020567 282.220878,428.428899 C325.407768,389.837231 397.297329,342.890666 426,321.539262" id="Path" stroke="#000000" stroke-width="2" stroke-linecap="round" stroke-linejoin="round"></path>
        </g>
    </g>
</svg>