<?xml version="1.0" encoding="UTF-8"?>
<svg width="269.039915px" height="303.004106px" viewBox="0 0 269.039915 303.004106" version="1.1" xmlns="http://www.w3.org/2000/svg" xmlns:xlink="http://www.w3.org/1999/xlink">
    <title>И</title>
    <g id="Page-1" stroke="none" stroke-width="1" fill="none" fill-rule="evenodd">
        <g id="И" transform="translate(-180.9985, -69.0004)">
            <rect id="Rectangle" x="0" y="0" width="631.578947" height="600"></rect>
            <path d="M208.406211,117.03889 C219.458286,110.443451 259.904177,84.9610719 274.71866,77.6661163 C289.650718,70.3711608 291.061621,71.2705388 297.410686,73.2691568 C303.642174,75.1678439 313.048196,80.3642506 312.813045,89.5578932 C312.577895,98.7515358 305.053078,110.043727 295.882207,128.431013 C286.593761,146.818298 276.129563,164.80586 257.435096,199.981536 C238.858204,235.157212 191.828099,311.304556 183.832981,339.684931 C175.955438,367.965376 195.120206,372.162473 209.93469,369.764132 C224.866748,367.265859 249.557553,346.18044 273.072606,324.995089 C296.587659,303.709808 321.63119,284.822868 350.90743,242.452167 C380.183671,200.181397 454.373662,57.5800058 448.730049,70.8708153 C443.204012,84.0616938 337.386275,271.831851 317.280905,321.897231 C297.29311,371.862681 315.046975,371.76275 328.56813,370.763441 C342.089286,369.764132 386.767886,325.09502 398.407837,315.901378" id="Path" stroke="#000000" stroke-width="2" stroke-linecap="round" stroke-linejoin="round"></path>
        </g>
    </g>
</svg>