<?xml version="1.0" encoding="UTF-8"?>
<svg width="152.978174px" height="149.567611px" viewBox="0 0 152.978174 149.567611" version="1.1" xmlns="http://www.w3.org/2000/svg" xmlns:xlink="http://www.w3.org/1999/xlink">
    <title>и</title>
    <g id="Page-1" stroke="none" stroke-width="1" fill="none" fill-rule="evenodd">
        <g id="и" transform="translate(-238.9862, -222.4943)">
            <rect id="Rectangle" x="0" y="0" width="631.578947" height="600"></rect>
            <path d="M290.502659,223.826715 C285.398817,235.197298 267.890703,273.573017 259.944216,291.921003 C251.997729,310.333596 245.924804,322.156418 242.952947,334.173057 C239.98109,346.189696 238.495161,358.335547 242.17768,364.020838 C245.860198,369.70613 255.292614,372.354959 265.048058,368.284807 C274.738896,364.214655 286.626324,354.394606 300.451919,339.729138 C314.212909,325.063669 334.822091,299.738279 347.678603,280.356603 C360.535115,260.974927 379.722974,218.399845 377.397173,223.503687 C375.071372,228.607528 342.380945,291.016525 333.788402,311.044257 C325.195859,331.071989 326.875604,334.689902 325.712704,343.670078 C324.549803,352.650255 325.195859,360.596742 326.681787,364.989922 C328.167716,369.383102 330.881151,369.964552 334.757486,370.158369 C338.633821,370.352186 340.571989,373.711676 349.939799,366.282034 C359.307609,358.852391 384.116154,332.364101 390.964346,325.580514" id="Path" stroke="#000000" stroke-width="2" stroke-linecap="round" stroke-linejoin="round"></path>
        </g>
    </g>
</svg>