<?xml version="1.0" encoding="UTF-8"?>
<svg width="229.121893px" height="326.213162px" viewBox="0 0 229.121893 326.213162" version="1.1" xmlns="http://www.w3.org/2000/svg" xmlns:xlink="http://www.w3.org/1999/xlink">
    <title>Й</title>
    <g id="Page-1" stroke="none" stroke-width="1" fill="none" fill-rule="evenodd">
        <g id="Й" transform="translate(-200.9982, -47.9997)">
            <rect id="up" x="0" y="0" width="631.578947" height="600"></rect>
            <path d="M224.458985,119.071417 C233.858985,112.471417 268.258985,86.9714174 280.858985,79.6714174 C293.558985,72.3714174 294.758985,73.2714174 300.158985,75.2714174 C305.458985,77.1714174 313.458985,82.3714174 313.258985,91.5714174 C313.058985,100.771417 306.658985,112.071417 298.858985,130.471417 C290.958985,148.871417 282.058985,166.871417 266.158985,202.071417 C250.358985,237.271417 210.358985,313.471417 203.558985,341.871417 C196.858985,370.171417 213.158985,374.371417 225.758985,371.971417 C238.458985,369.471417 259.458985,348.371417 279.458985,327.171417 C299.458985,305.871417 320.758985,286.971417 345.658985,244.571417 C370.558985,202.271417 433.658985,59.5714174 428.858985,72.8714174 C424.158985,86.0714174 334.158985,273.971417 317.058985,324.071417 C300.058985,374.071417 315.158985,373.971417 326.658985,372.971417 C338.158985,371.971417 376.158985,327.271417 386.058985,318.071417" id="Path" stroke="#000000" stroke-width="2" stroke-linecap="round" stroke-linejoin="round"></path>
            <path d="M338,49 C338.912548,51.4059826 340.737643,59.884207 343.703422,63.0921838 C346.78327,66.4147312 351.574144,67.904149 356.136882,68.5915726 C360.585551,69.3935668 366.403042,68.9352844 370.851711,67.904149 C375.414449,66.8730136 378.722433,65.612737 383.285171,62.5193308 C387.73384,59.5404952 395.604563,51.7496944 398,49.572853" id="Path" stroke="#000000" stroke-width="2" stroke-linecap="round" stroke-linejoin="round"></path>
        </g>
    </g>
</svg>