<?xml version="1.0" encoding="UTF-8"?>
<svg width="150.962553px" height="196.979855px" viewBox="0 0 150.962553 196.979855" version="1.1" xmlns="http://www.w3.org/2000/svg" xmlns:xlink="http://www.w3.org/1999/xlink">
    <title>й</title>
    <g id="Page-1" stroke="none" stroke-width="1" fill="none" fill-rule="evenodd">
        <g id="й" transform="translate(-239.9863, -177.0824)">
            <rect id="low" x="0" y="0" width="631.578947" height="600"></rect>
            <path d="M290.82841,227.792689 C285.792709,239.011467 268.518341,276.87484 260.677946,294.977867 C252.83755,313.144638 246.845703,324.809616 243.913523,336.665824 C240.981342,348.522032 239.515252,360.505726 243.148606,366.115115 C246.78196,371.724504 256.088446,374.337969 265.713647,370.322156 C275.275105,366.306344 287.003827,356.6174 300.64484,342.147727 C314.22211,327.678054 334.556144,302.690777 347.241012,283.567861 C359.92588,264.444945 378.857566,222.438273 376.562816,227.473974 C374.268067,232.509675 342.014082,294.085465 333.536256,313.845811 C325.058429,333.606158 326.715749,337.175769 325.568374,346.036053 C324.420999,354.896338 325.058429,362.736733 326.52452,367.071261 C327.99061,371.405788 330.667818,371.979476 334.492401,372.170705 C338.316985,372.361934 340.229276,375.676573 349.472019,368.346122 C358.714762,361.015671 383.192094,334.881019 389.948858,328.187998" id="Path" stroke="#000000" stroke-width="2" stroke-linecap="round" stroke-linejoin="round"></path>
            <path d="M315.602652,178.155521 C316.407478,179.326176 318.748788,183.350303 320.431604,185.252617 C322.114421,187.228097 323.57774,188.691416 325.772718,189.788905 C327.967696,190.886394 330.528504,191.69122 333.674639,191.983883 C336.820775,192.203381 341.064399,192.203381 344.722696,191.32539 C348.454159,190.520565 352.40512,189.276744 355.770753,187.0086 C359.136386,184.813621 363.380011,179.545674 364.916495,178.082355" id="Path" stroke="#000000" stroke-width="2" stroke-linecap="round" stroke-linejoin="round"></path>
        </g>
    </g>
</svg>