<?xml version="1.0" encoding="UTF-8"?>
<svg width="295.748285px" height="287.005024px" viewBox="0 0 295.748285 287.005024" version="1.1" xmlns="http://www.w3.org/2000/svg" xmlns:xlink="http://www.w3.org/1999/xlink">
    <title>К</title>
    <g id="Page-1" stroke="none" stroke-width="1" fill="none" fill-rule="evenodd">
        <g id="К" transform="translate(-167.9846, -88.3393)">
            <rect id="up" x="0" y="0" width="631.578947" height="600"></rect>
            <path d="M264.433988,120.749468 C271.308601,118.32883 294.449901,110.776439 306.068964,106.516116 C317.688027,102.255793 326.402325,97.898644 334.051541,95.1875292 C341.797583,92.379589 350.318229,88.1192659 352.351566,89.8621253 C354.384902,91.7018103 351.286485,95.5748313 346.251557,106.128814 C341.119805,116.58597 328.24201,140.889177 321.851525,152.992368 C315.46104,165.095559 316.235644,164.320955 307.908649,178.747958 C299.581654,193.174961 283.21814,219.124202 271.986379,239.748039 C260.754618,260.371876 249.135555,285.159211 240.324432,302.587805 C231.416484,319.919574 225.994255,332.99102 219.022817,344.02913 C212.148204,354.970415 204.111686,363.684712 198.883107,368.719639 C193.654529,373.754566 192.492623,374.432345 187.844997,374.33552 C183.100547,374.33552 173.321169,373.367264 170.803705,368.235512 C168.383067,363.200584 167.705288,355.06724 173.224343,344.125956 C178.743398,333.184671 194.235482,314.206868 203.918035,302.49098 C213.697413,290.775091 218.635515,286.90207 231.51331,273.830624 C244.391104,260.856004 264.530814,241.68455 281.378455,224.546431 C298.226097,207.505139 314.783262,189.30194 332.792809,171.486043 C350.802357,153.766972 372.878577,131.593927 389.435742,117.941528 C405.992907,104.385954 420.710387,93.1541932 432.038973,90.0557764 C443.36756,86.9573596 452.275508,94.7034016 457.407261,99.2542013 C462.442188,103.708175 461.861235,114.068507 462.732665,117.070098" id="Path" stroke="#000000" stroke-width="2" stroke-linecap="round" stroke-linejoin="round"></path>
            <path d="M272.373681,236.26232 C274.503843,235.294065 280.022898,232.486125 285.348302,230.64644 C290.770531,228.709929 298.129271,225.805163 304.713407,224.836908 C311.394368,223.868653 319.237236,223.094049 325.434069,224.643257 C331.534078,226.289291 337.924562,230.452789 341.410281,234.32581 C344.992826,238.102005 346.251557,241.200422 346.348383,247.590907 C346.445208,253.981391 344.992826,263.663944 342.08806,272.668718 C339.086469,281.770317 333.761065,291.065568 328.726137,301.910026 C323.594384,312.65766 314.783262,327.665616 311.297543,337.638645 C307.811824,347.514849 305.584837,355.551368 307.714998,361.264074 C309.84516,366.97678 315.364215,373.173613 323.788035,371.818056 C332.211856,370.365673 345.476953,362.813282 358.354748,353.033904 C371.232543,343.1577 393.986542,319.532272 401.15163,312.851311" id="Path" stroke="#000000" stroke-width="2" stroke-linecap="round" stroke-linejoin="round"></path>
        </g>
    </g>
</svg>