<?xml version="1.0" encoding="UTF-8"?>
<svg width="138.349719px" height="150.954643px" viewBox="0 0 138.349719 150.954643" version="1.1" xmlns="http://www.w3.org/2000/svg" xmlns:xlink="http://www.w3.org/1999/xlink">
    <title>ะบ</title>
    <g id="Page-1" stroke="none" stroke-width="1" fill="none" fill-rule="evenodd">
        <g id="ะบ" transform="translate(-246.9989, -224.6289)">
            <rect id="low" x="0" y="0" width="631.578947" height="600"></rect>
            <path d="M310.439529,225.629189 C308.630564,230.280812 303.785124,243.008168 299.650348,253.345108 C295.450966,263.682048 293.965031,267.5584 285.37245,287.650826 C276.779869,307.807859 250.291461,368.98962 248.159467,374.222696 C246.027474,379.455772 265.861476,332.68112 272.515881,319.049281 C279.170286,305.417441 280.52701,302.897812 288.021291,292.560873 C295.450966,282.159327 308.953594,265.68483 317.416963,256.769219 C325.880332,247.853609 331.630255,243.525015 338.607689,239.002604 C345.585123,234.544799 353.208616,230.92687 359.216963,229.893176 C365.225309,228.924088 370.587596,230.92687 374.786978,233.058864 C378.98636,235.255464 382.7335,241.328416 384.348647,242.943563" id="Path" stroke="#000000" stroke-width="2" stroke-linecap="round" stroke-linejoin="round"></path>
            <path d="M280.720827,301.864118 C284.726391,299.473701 296.097025,290.751908 304.625,287.650826 C313.152975,284.549745 325.105062,282.417751 331.888678,283.063809 C338.672295,283.709868 343.323918,286.423315 345.3267,291.527179 C347.329482,296.631043 346.748029,304.448353 343.840765,313.557781 C340.998106,322.667209 331.048802,337.720378 328.012326,346.183747 C325.040456,354.711722 324.265185,360.203221 326.009544,364.596421 C327.753903,368.925014 333.310008,372.026096 338.478477,372.349126 C343.646947,372.672155 349.913717,369.700285 356.955757,366.534597 C363.933191,363.304303 376.595942,355.422387 380.5369,353.225787" id="Path" stroke="#000000" stroke-width="2" stroke-linecap="round" stroke-linejoin="round"></path>
        </g>
    </g>
</svg>