<?xml version="1.0" encoding="UTF-8"?>
<svg width="326.751811px" height="322.00122px" viewBox="0 0 326.751811 322.00122" version="1.1" xmlns="http://www.w3.org/2000/svg" xmlns:xlink="http://www.w3.org/1999/xlink">
    <title>Л</title>
    <g id="Page-1" stroke="none" stroke-width="1" fill="none" fill-rule="evenodd">
        <g id="Л" transform="translate(-144.9998, -52.3859)">
            <rect id="up" x="0" y="0" width="631.578947" height="600"></rect>
            <path d="M146,326.84664 C146.858707,330.853939 147.144943,343.543719 150.770594,350.890434 C154.396246,358.332561 159.16684,368.732456 167.563085,371.308577 C175.863919,373.789286 186.55005,373.50305 201.052656,366.251747 C215.555262,359.000444 234.542227,345.929016 254.483311,327.514523 C274.424394,309.10003 296.750775,283.911292 320.412922,255.669375 C344.17048,227.427458 375.56099,185.827877 396.456192,158.253843 C417.446806,130.679809 433.85765,107.303898 446.165783,90.1297588 C458.473916,72.9556199 473.548993,45.7632334 470.304989,55.3998335 C467.060985,65.0364337 442.253896,114.746025 426.510935,148.044772 C410.672563,181.343519 388.72783,223.610983 375.465578,255.096904 C362.203326,286.487413 350.7539,317.400863 346.842013,336.674064 C342.834714,355.947264 345.601659,365.488452 351.612607,370.736106 C357.623556,376.079171 373.461928,372.358108 382.716881,368.255397 C391.971834,364.248098 399.41396,354.706909 407.237735,346.310664 C415.061509,338.00983 425.843052,322.839341 429.659527,318.164158" id="Path" stroke="#000000" stroke-width="2" stroke-linecap="round" stroke-linejoin="round"></path>
        </g>
    </g>
</svg>