<?xml version="1.0" encoding="UTF-8"?>
<svg width="151.016931px" height="148.004113px" viewBox="0 0 151.016931 148.004113" version="1.1" xmlns="http://www.w3.org/2000/svg" xmlns:xlink="http://www.w3.org/1999/xlink">
    <title>л</title>
    <g id="Page-1" stroke="none" stroke-width="1" fill="none" fill-rule="evenodd">
        <g id="л" transform="translate(-237, -226.3877)">
            <rect id="low" x="0" y="0" width="631.578947" height="600"></rect>
            <path d="M238,351.518528 C238,353.527451 239.240069,360.171598 240.083296,364.060973 C240.926523,367.950348 242.00278,371.168539 246.00556,372.396665 C249.962854,373.579304 255.057301,373.442846 261.971194,369.985899 C268.885087,366.528953 277.936828,360.297352 287.44343,351.518528 C296.950033,342.739704 307.593789,330.731364 318.87435,317.267467 C330.200398,303.803571 345.165337,283.971615 355.126801,270.826122 C365.133751,257.680629 372.957367,246.536525 378.825078,238.349021 C384.69279,230.161516 388.197198,224.426359 386.650669,229.020459 C385.104141,233.614558 376.960147,250.084444 369.454934,265.959106 C361.904235,281.833767 351.442424,301.984125 345.119851,316.99455 C338.797278,331.959489 333.338942,346.696998 331.47401,355.885197 C329.563592,365.073397 330.88269,369.62201 333.748317,372.123748 C336.613944,374.670971 344.164642,372.897012 348.576797,370.941108 C352.988953,369.03069 356.788397,367.065904 362.289125,364.060973 C367.789853,361.056042 371.49752,358.252793 374.080077,356.445916" id="Path" stroke="#000000" stroke-width="2" stroke-linecap="round" stroke-linejoin="round"></path>
        </g>
    </g>
</svg>