<?xml version="1.0" encoding="UTF-8"?>
<svg width="419.171683px" height="312.046225px" viewBox="0 0 419.171683 312.046225" version="1.1" xmlns="http://www.w3.org/2000/svg" xmlns:xlink="http://www.w3.org/1999/xlink">
    <title>лю</title>
    <g id="Page-1" stroke="none" stroke-width="1" fill="none" fill-rule="evenodd">
        <g id="лю" transform="translate(-100.9998, -63.1555)">
            <rect id="up" x="0" y="0" width="631.578947" height="600"></rect>
            <path d="M102,335.837148 C105.604656,341.974805 112.424275,368.084203 123.725357,372.370821 C134.929017,376.754861 150.90641,373.247629 169.709074,361.946546 C188.414314,350.645463 206.34017,337.493341 236.151647,304.75917 C265.963124,272.122422 319.156151,205.777272 348.480513,165.638944 C377.902297,125.598039 410.344199,62.8575444 412.584931,64.2214682 C414.728239,65.5853919 379.071375,137.191391 361.730058,174.017333 C344.291318,210.843275 321.396883,255.657914 308.439607,284.982275 C295.384908,314.40406 285.15548,336.22684 283.59671,350.255771 C282.135363,364.284701 289.734367,370.032666 299.47668,369.058434 C309.218992,368.084203 319.935536,366.720279 342.342856,344.31296 C364.750175,322.003064 404.498811,279.234311 433.920596,234.711941 C463.439803,190.189572 519.458102,74.5483197 519.166971,77.1787441 C518.970986,79.9065917 452.918105,204.510772 432.459249,250.786757 C412.000392,297.062743 399.043116,334.765493 396.510115,354.639811 C393.977113,374.514129 406.64212,373.150206 417.358664,370.032666 C427.977785,366.817702 453.405221,341.292843 460.711956,335.544878" id="Path" stroke="#000000" stroke-width="2" stroke-linecap="round" stroke-linejoin="round"></path>
        </g>
    </g>
</svg>