<?xml version="1.0" encoding="UTF-8"?>
<svg width="246.604221px" height="148.013542px" viewBox="0 0 246.604221 148.013542" version="1.1" xmlns="http://www.w3.org/2000/svg" xmlns:xlink="http://www.w3.org/1999/xlink">
    <title>м</title>
    <g id="Page-1" stroke="none" stroke-width="1" fill="none" fill-rule="evenodd">
        <g id="м" transform="translate(-191.9999, -226.3825)">
            <rect id="low" x="0" y="0" width="631.578947" height="600"></rect>
            <path d="M193,343.380381 C195.927602,347.622416 203.87395,364.411317 210.505864,368.89234 C217.197526,373.373364 224.665898,373.25387 232.970728,370.206774 C241.215811,367.099931 247.011268,364.112582 260.155603,350.370777 C273.299938,336.688719 297.138982,308.308905 311.836739,287.875439 C326.534495,267.501719 344.697576,232.071762 348.342142,227.94922 C351.986707,223.826679 339.917818,244.857615 333.823626,263.14019 C327.729435,281.422765 316.019027,320.019313 311.896485,337.764165 C307.773944,355.44927 305.742547,364.829546 309.028631,369.370316 C312.314714,373.970833 319.364858,374.448809 331.672735,365.128281 C343.920866,355.807752 369.373078,330.056805 382.756401,313.387398 C396.199471,296.717991 404.623795,279.391368 412.151914,265.052093 C419.73978,250.772566 429.359044,224.663136 428.223851,227.590738 C427.088658,230.51834 412.689637,263.379178 405.460252,282.617705 C398.230868,301.796484 387.476412,328.144902 384.728051,342.842658 C381.919943,357.540415 385.504762,366.621955 388.850593,370.863991 C392.136676,375.106026 396.438459,373.791592 404.564048,368.11563 C412.689637,362.439667 432.107404,342.0062 437.604126,336.808213" id="Path" stroke="#000000" stroke-width="2" stroke-linecap="round" stroke-linejoin="round"></path>
        </g>
    </g>
</svg>