<?xml version="1.0" encoding="UTF-8"?>
<svg width="304.661703px" height="308.0695px" viewBox="0 0 304.661703 308.0695" version="1.1" xmlns="http://www.w3.org/2000/svg" xmlns:xlink="http://www.w3.org/1999/xlink">
    <title>Н</title>
    <g id="Page-1" stroke="none" stroke-width="1" fill="none" fill-rule="evenodd">
        <g id="Н" transform="translate(-162.9958, -66.7815)">
            <rect id="up" x="0" y="0" width="631.578947" height="600"></rect>
            <path d="M255.776338,132.141105 C265.540955,124.751665 299.761101,98.360807 314.100134,87.7164944 C328.439166,77.0721817 340.051144,65.4602042 342.074443,68.2752291 C344.009773,71.0022844 336.444393,82.3503533 325.800081,104.078826 C315.243737,125.807299 290.876179,172.958965 278.472476,198.646067 C266.068772,224.333169 263.429687,232.602304 251.553801,258.113467 C239.677914,283.53666 220.412588,333.151472 207.04122,351.273195 C193.669852,369.482887 177.39549,372.034003 171.413562,367.283649 C165.343665,362.533294 158.570011,341.596547 170.885745,322.771068 C183.113509,303.85762 225.250912,270.869048 245.132025,253.978899 C265.013138,237.08875 274.073999,230.930883 290.260392,221.342205 C306.534754,211.753526 325.184294,205.155812 342.426321,196.622768 C359.668348,188.001754 377.96601,179.908558 393.800524,170.055971 C409.54707,160.203384 425.821432,148.239528 437.169501,137.331307 C448.4296,126.511055 456.610766,113.491566 461.44909,104.870552 C466.287414,96.2495384 467.431018,91.2352754 466.199444,85.5172562 C464.967871,79.799237 460.393456,70.8263453 453.97168,70.3864977 C447.461935,69.9466501 438.752952,66.7797471 427.404883,82.8781704 C416.144784,99.0645632 398.550879,140.850088 385.971237,167.240946 C373.391594,193.631804 363.275099,212.193374 351.751091,241.135348 C340.227083,270.077322 320.785818,318.81244 317.091098,340.716852 C313.308408,362.621264 323.688812,368.515222 329.406831,372.473851 C335.12485,376.432479 341.898504,371.242277 351.311243,364.468624 C360.723983,357.69497 380.253217,337.461979 386.059206,332.095838" id="Path" stroke="#000000" stroke-width="2" stroke-linecap="round" stroke-linejoin="round"></path>
        </g>
    </g>
</svg>