<?xml version="1.0" encoding="UTF-8"?>
<svg width="166.264834px" height="151.834765px" viewBox="0 0 166.264834 151.834765" version="1.1" xmlns="http://www.w3.org/2000/svg" xmlns:xlink="http://www.w3.org/1999/xlink">
    <title>н</title>
    <g id="Page-1" stroke="none" stroke-width="1" fill="none" fill-rule="evenodd">
        <g id="н" transform="translate(-233.001, -223.927)">
            <rect id="low" x="0" y="0" width="631.578947" height="600"></rect>
            <path d="M297.339442,228.035833 C291.663555,241.149089 274.113973,282.185101 263.545079,306.650132 C253.041426,331.049922 235.752805,370.650652 234.121803,374.630297 C232.42556,378.609942 248.931301,340.444494 253.432867,330.397521 C257.869192,320.285309 258.325873,316.566624 260.935476,314.152741 C263.479839,311.673618 262.501238,315.718503 268.829526,315.783743 C275.157814,315.783743 286.248628,317.871426 298.970444,314.283221 C311.69226,310.695017 332.960526,304.040528 345.095182,294.124036 C357.229837,284.142303 365.123887,265.80984 371.908855,254.588546 C378.693824,243.302012 389.197477,218.641261 385.739753,226.404831 C382.282028,234.168401 359.187039,282.380821 351.032029,301.169965 C342.877019,319.959108 340.006455,328.048878 336.809691,339.074452 C333.547687,350.100026 329.241842,361.712761 331.655725,367.258167 C334.134848,372.803574 343.79038,374.630297 351.55395,372.412134 C359.317519,370.128731 370.408333,360.212239 378.171903,353.753471 C385.935473,347.229462 394.873364,336.856289 398.265848,333.529045" id="Path" stroke="#000000" stroke-width="2" stroke-linecap="round" stroke-linejoin="round"></path>
        </g>
    </g>
</svg>