<?xml version="1.0" encoding="UTF-8"?>
<svg width="246.476171px" height="332.022095px" viewBox="0 0 246.476171 332.022095" version="1.1" xmlns="http://www.w3.org/2000/svg" xmlns:xlink="http://www.w3.org/1999/xlink">
    <title>О</title>
    <g id="letters" stroke="none" stroke-width="1" fill="none" fill-rule="evenodd">
        <g id="О" transform="translate(-193.0001, -43.2462)">
            <rect id="up" x="0" y="0" width="631.578947" height="600"></rect>
            <path d="M317.161437,79.0336642 C308.20844,89.3640452 280.048587,117.217813 263.366935,141.168993 C246.685283,165.196693 228.24364,199.24869 217.071524,223.046827 C205.822887,246.768442 199.242052,265.898777 196.028155,283.804771 C192.89078,301.710764 193.273387,316.632426 198.01771,330.406267 C202.762033,344.25663 211.944594,359.790462 224.494094,366.906946 C237.120115,373.94691 258.928697,375.783422 273.620794,373.028654 C288.23637,370.273885 297.725017,363.769571 312.493635,350.454858 C327.262254,337.140145 346.698674,315.17852 362.232506,293.140374 C377.84286,271.025707 394.294948,240.723256 405.773149,217.996418 C417.25135,195.26958 425.82174,177.593151 431.178234,156.779346 C436.534728,135.88902 439.978188,110.483935 437.835591,92.6544628 C435.692993,74.9015118 428.040859,57.6842103 418.322649,49.8790336 C408.527917,42.0738568 391.693222,44.139933 379.296765,45.8234025 C366.900308,47.506872 354.197766,54.6233567 343.867385,60.1328932 C333.537004,65.6424297 321.599675,75.8197679 317.161437,78.9571429" id="Path" stroke="#000000" stroke-width="2" stroke-linecap="round" stroke-linejoin="round"></path>
        </g>
    </g>
</svg>