<?xml version="1.0" encoding="UTF-8"?>
<svg width="227.017656px" height="305.988631px" viewBox="0 0 227.017656 305.988631" version="1.1" xmlns="http://www.w3.org/2000/svg" xmlns:xlink="http://www.w3.org/1999/xlink">
    <title>О</title>
    <g id="Page-1" stroke="none" stroke-width="1" fill="none" fill-rule="evenodd">
        <g id="О" transform="translate(-185.9991, -67.9189)">
            <rect id="up" x="0" y="0" width="631.578947" height="600"></rect>
            <path d="M190.382733,279.674565 C189.945849,286.577326 184.877999,307.722494 188.023561,321.265887 C191.081747,334.896656 197.285494,352.721509 208.819222,361.109674 C220.35295,369.585217 241.323365,375.177327 257.138552,372.031765 C272.95374,368.886203 287.3709,358.051489 303.622971,342.236301 C319.875042,326.421114 341.981354,295.314999 354.825733,277.053263 C367.582735,258.791527 371.077804,253.985807 380.427114,232.403756 C389.689047,210.909081 406.902262,172.288567 410.659461,147.910461 C414.504037,123.532354 409.698317,99.154247 403.145063,85.9603612 C396.679185,72.8538522 385.05808,69.1840297 371.602064,68.9218995 C358.146049,68.747146 337.612518,75.8246609 322.408967,84.6497103 C307.205417,93.4747598 295.496935,104.746358 280.206008,121.959573 C265.002458,139.172788 244.294173,166.521703 230.925534,188.016378 C217.469518,209.511053 206.372674,235.724071 199.644666,251.102375 C192.916658,266.480679 191.955514,275.393105 190.47011,280.198825" id="Path" stroke="#000000" stroke-width="2" stroke-linecap="round" stroke-linejoin="round"></path>
        </g>
    </g>
</svg>