<?xml version="1.0" encoding="UTF-8"?>
<svg width="110.067873px" height="147.994321px" viewBox="0 0 110.067873 147.994321" version="1.1" xmlns="http://www.w3.org/2000/svg" xmlns:xlink="http://www.w3.org/1999/xlink">
    <title>о</title>
    <g id="Page-1" stroke="none" stroke-width="1" fill="none" fill-rule="evenodd">
        <g id="о" transform="translate(-260.9995, -225.9189)">
            <rect id="low" x="0" y="0" width="631.578947" height="600"></rect>
            <path d="M263.624602,328.136994 C263.414783,331.452136 260.980881,341.607381 262.491579,348.111773 C263.960313,354.65813 266.939744,363.218749 272.478969,367.247276 C278.018193,371.317767 288.089511,374.003452 295.684963,372.492754 C303.280414,370.982057 310.204445,365.778543 318.009716,358.183091 C325.814987,350.587639 336.431835,335.648518 342.600516,326.878079 C348.727235,318.10764 350.405787,315.79963 354.895917,305.434565 C359.344082,295.111465 367.610955,276.563455 369.415399,264.855549 C371.261807,253.147642 368.953797,241.439736 365.80651,235.103198 C362.701188,228.808625 357.119999,227.046144 350.65757,226.920253 C344.195142,226.836325 334.333643,230.235395 327.031938,234.473741 C319.730233,238.712087 314.107081,244.12542 306.763412,252.392293 C299.461707,260.659167 289.516281,273.793843 283.095816,284.116943 C276.633387,294.440044 271.303982,307.029191 268.072767,314.414824 C264.841553,321.800456 264.379951,326.080766 263.666566,328.388777" id="Path" stroke="#000000" stroke-width="2" stroke-linecap="round" stroke-linejoin="round"></path>
        </g>
    </g>
</svg>