<?xml version="1.0" encoding="UTF-8"?>
<svg width="110.902886px" height="149.031124px" viewBox="0 0 110.902886 149.031124" version="1.1" xmlns="http://www.w3.org/2000/svg" xmlns:xlink="http://www.w3.org/1999/xlink">
    <title>о</title>
    <g id="letters" stroke="none" stroke-width="1" fill="none" fill-rule="evenodd">
        <g id="о" transform="translate(-260.0001, -225.2284)">
            <rect id="low" x="0" y="0" width="631.578947" height="600"></rect>
            <path d="M315.862822,241.745788 C311.874669,246.347503 299.330734,258.75509 291.899816,269.424252 C284.468899,280.127501 276.253985,295.296117 271.277315,305.897106 C266.266559,316.464007 263.335096,324.985702 261.903451,332.962008 C260.505893,340.938314 260.676327,347.585236 262.789707,353.720856 C264.903088,359.890563 268.993501,366.810179 274.583733,369.98025 C280.208051,373.116233 289.922783,373.934316 296.467445,372.707192 C302.97802,371.480068 307.20478,368.582692 313.783528,362.651592 C320.362277,356.720493 329.020319,346.937587 335.939935,337.120595 C342.893638,327.269516 350.222295,313.771151 355.335312,303.647378 C360.448329,293.523605 364.266048,285.649559 366.652122,276.377955 C369.038197,267.072264 370.572102,255.755454 369.617672,247.813234 C368.663242,239.905102 365.254564,232.235576 360.925544,228.758725 C356.562436,225.281874 349.063345,226.202217 343.541286,226.952126 C338.019228,227.702035 332.360823,230.872105 327.759108,233.326353 C323.157393,235.780601 317.839855,240.314143 315.862822,241.711701" id="Path" stroke="#000000" stroke-width="2" stroke-linecap="round" stroke-linejoin="round"></path>
        </g>
    </g>
</svg>