<?xml version="1.0" encoding="UTF-8"?>
<svg width="355.921707px" height="297.998203px" viewBox="0 0 355.921707 297.998203" version="1.1" xmlns="http://www.w3.org/2000/svg" xmlns:xlink="http://www.w3.org/1999/xlink">
    <title>П</title>
    <g id="Page-1" stroke="none" stroke-width="1" fill="none" fill-rule="evenodd">
        <g id="П" transform="translate(-125.9997, -76.8034)">
            <rect id="up" x="0" y="0" width="631.578947" height="600"></rect>
            <path d="M312.208887,98.8352756 C304.335635,120.111803 280.809607,187.78428 264.688186,226.494438 C248.473035,265.204595 230.570759,307.101544 215.105442,331.002489 C199.733854,354.903433 185.299559,363.620248 172.177471,369.993833 C159.055384,376.273689 143.871255,374.024189 136.372919,368.775354 C128.780855,363.526519 128.499667,343.374742 127,338.219636" id="Path" stroke="#000000" stroke-width="2" stroke-linecap="round" stroke-linejoin="round"></path>
            <path d="M396.75262,94.4300035 C387.660888,118.04976 356.917712,198.844325 342.295958,236.148544 C327.767933,273.359034 314.833304,296.135228 309.209553,317.880401 C303.585801,339.531845 303.398343,358.371413 308.647178,366.244665 C313.989742,374.211647 329.2676,371.118584 341.171208,365.307373 C352.981086,359.402434 370.414716,340.750325 379.975094,331.377405 C389.441743,322.004486 395.065494,312.819025 398.064828,309.069857" id="Path" stroke="#000000" stroke-width="2" stroke-linecap="round" stroke-linejoin="round"></path>
            <path d="M228.883634,168.194879 C226.165487,161.165189 208.638128,139.326287 212.949671,125.923013 C217.261214,112.613467 226.259216,96.3045874 254.84662,88.3376059 C283.434024,80.2768952 346.982418,79.1521449 384.661554,78.0273946 C422.34069,76.8089151 464.893744,80.9329996 480.921436,81.4953747" id="Path" stroke="#000000" stroke-width="2" stroke-linecap="round" stroke-linejoin="round"></path>
        </g>
    </g>
</svg>