<?xml version="1.0" encoding="UTF-8"?>
<svg width="183.041542px" height="151.032353px" viewBox="0 0 183.041542 151.032353" version="1.1" xmlns="http://www.w3.org/2000/svg" xmlns:xlink="http://www.w3.org/1999/xlink">
    <title>п</title>
    <g id="Page-1" stroke="none" stroke-width="1" fill="none" fill-rule="evenodd">
        <g id="п" transform="translate(-223.9996, -223.6221)">
            <rect id="low" x="0" y="0" width="631.578947" height="600"></rect>
            <path d="M298.575619,224.622275 C292.204809,237.363896 281.419138,258.7117 266.721567,288.386265 C252.023995,318.060829 225.926026,369.474388 225.031877,373.050984 C224.137728,376.627579 242.188358,332.534864 262.306707,306.269241 C282.369172,280.003619 303.549322,256.532212 325.455969,241.722871 C347.362616,226.857647 363.51318,227.41649 371.895825,232.166656 C380.334355,236.972706 373.628238,248.987831 367.536849,265.585469 C361.44546,282.183107 348.759724,298.836629 341.550649,315.266614 C334.341573,331.696599 331.715011,336.726187 331.43559,347.791279 C331.212052,358.912255 334.397458,366.344867 340.26531,370.815612 C346.189046,375.286356 351.330402,373.945132 360.830733,370.089116 C370.331065,366.233099 378.769594,358.07399 387.822851,351.423758 C396.876109,344.773526 402.408655,339.688055 406.041134,336.782071" id="Path" stroke="#000000" stroke-width="2" stroke-linecap="round" stroke-linejoin="round"></path>
        </g>
    </g>
</svg>