<?xml version="1.0" encoding="UTF-8"?>
<svg width="267.462892px" height="265.072168px" viewBox="0 0 267.462892 265.072168" version="1.1" xmlns="http://www.w3.org/2000/svg" xmlns:xlink="http://www.w3.org/1999/xlink">
    <title>ла</title>
    <g id="Page-1" stroke="none" stroke-width="1" fill="none" fill-rule="evenodd">
        <g id="ла" transform="translate(-182.339, -108.6554)">
            <rect id="up" x="0" y="0" width="631.578947" height="600"></rect>
            <path d="M355.715409,135.029046 C349.886257,151.267398 335.063556,197.734068 320.324128,232.625707 C305.667974,267.517347 282.767734,321.395367 267.611938,344.545429 C252.456142,367.612216 240.214923,367.362395 229.389355,371.109708 C218.563786,374.85702 210.153153,371.109708 202.491981,366.946027 C194.83081,362.865621 186.50345,349.791665 183.339053,346.377448" id="Path" stroke="#000000" stroke-width="2" stroke-linecap="round" stroke-linejoin="round"></path>
            <path d="M279.68661,197.3177 C274.690194,193.820209 252.955784,185.99249 249.957934,176.082932 C246.876811,166.256647 250.957218,148.519369 261.532965,138.110169 C272.191986,127.784242 296.924246,118.457599 313.412419,113.877551 C329.983866,109.297503 343.141095,108.881135 360.795099,110.546607 C378.365829,112.212079 405.013381,117.291769 419.253167,123.703836 C433.492953,130.115903 442.070134,138.942905 446.317088,148.935737 C450.647315,158.845296 448.732022,174.250912 445.067984,183.494282 C441.403945,192.820926 430.911472,200.398823 424.416131,204.562504 C417.92079,208.726184 409.177061,207.810174 406.095938,208.476363" id="Path" stroke="#000000" stroke-width="2" stroke-linecap="round" stroke-linejoin="round"></path>
        </g>
    </g>
</svg>