<?xml version="1.0" encoding="UTF-8"?>
<svg width="211.172917px" height="287.859438px" viewBox="0 0 211.172917 287.859438" version="1.1" xmlns="http://www.w3.org/2000/svg" xmlns:xlink="http://www.w3.org/1999/xlink">
    <title>р</title>
    <g id="Page-1" stroke="none" stroke-width="1" fill="none" fill-rule="evenodd">
        <g id="р" transform="translate(-209.9997, -222.4096)">
            <rect id="low" x="0" y="0" width="631.578947" height="600"></rect>
            <path d="M333.411249,223.409842 C319.665105,255.097383 271.553599,365.959146 251.202164,413.624349 C230.850729,461.20029 209.160384,513.68557 211.124119,509.133275 C212.998594,504.58098 243.793528,426.388626 262.895313,386.310581 C282.086359,346.143275 308.328999,294.19356 326.091874,268.397224 C343.854749,242.600888 357.868675,237.780811 369.561824,231.621824 C381.165713,225.462838 391.252169,226.980269 395.982985,231.264782 C400.624541,235.549294 403.659404,237.959333 397.768199,257.3289 C391.876994,276.698467 365.366572,328.201879 360.457235,347.214404 C355.458637,366.226928 362.42097,368.101402 367.955132,371.404047 C373.578555,374.617432 385.182443,372.296654 393.92999,366.851753 C402.588275,361.406851 415.798856,343.376194 420.172629,338.734639" id="Path" stroke="#000000" stroke-width="2" stroke-linecap="round" stroke-linejoin="round"></path>
        </g>
    </g>
</svg>