<?xml version="1.0" encoding="UTF-8"?>
<svg width="219.292085px" height="321.003858px" viewBox="0 0 219.292085 321.003858" version="1.1" xmlns="http://www.w3.org/2000/svg" xmlns:xlink="http://www.w3.org/1999/xlink">
    <title>У</title>
    <g id="Page-2" stroke="none" stroke-width="1" fill="none" fill-rule="evenodd">
        <g id="У" transform="translate(-205.9998, -53.9832)">
            <rect id="up" x="0" y="0" width="631.578947" height="600"></rect>
            <path d="M249.161836,95.6862349 C252.42658,92.9811614 261.101471,85.0524975 268.750299,79.1759585 C276.492406,73.3926978 288.432041,64.53125 295.427921,60.4270005 C302.517079,56.4160294 306.341494,54.7370182 311.285249,55.0168534 C316.229004,55.2034102 323.318162,57.7219269 324.997173,62.0127332 C326.676185,66.2102612 326.303071,67.2363235 321.359316,80.481856 C316.322282,93.7273885 302.517079,121.710908 295.054808,141.39265 C287.499257,161.074392 277.984861,185.326775 276.026014,198.479029 C274.160447,211.631284 278.731088,216.295203 283.674843,220.212896 C288.52532,224.130589 296.267427,225.529765 305.40871,222.078464 C314.643271,218.627163 328.541752,208.36654 338.615819,199.411813 C348.783165,190.550366 357.084942,181.129247 366.412782,168.536664 C375.740622,156.037358 385.068462,142.325434 394.676137,124.136146 C404.37709,105.85358 423.405883,60.1471653 424.245389,59.1211029 C425.084894,58.0950405 413.891487,85.5188895 399.899727,117.793215 C385.814689,150.067541 356.245437,218.906999 340.108274,252.673779 C324.064389,286.440559 313.617209,303.603784 303.263307,320.393896 C292.816126,337.184007 286.286638,345.019393 277.611747,353.414448 C268.936856,361.902783 258.582954,367.686043 251.027404,371.044066 C243.471854,374.30881 237.688593,374.588645 232.371724,373.189469 C227.148134,371.790293 223.510276,368.43227 219.21947,362.555731 C215.021942,356.772471 209.052125,342.127762 207,338.023513" id="Path" stroke="#000000" stroke-width="2" stroke-linecap="round" stroke-linejoin="round"></path>
        </g>
    </g>
</svg>