<?xml version="1.0" encoding="UTF-8"?>
<svg width="267.37096px" height="308.001153px" viewBox="0 0 267.37096 308.001153" version="1.1" xmlns="http://www.w3.org/2000/svg" xmlns:xlink="http://www.w3.org/1999/xlink">
    <title>Ф</title>
    <g id="letters" stroke="none" stroke-width="1" fill="none" fill-rule="evenodd">
        <g id="Ф" transform="translate(-181.9999, -64.9998)">
            <rect id="up" x="0" y="0" width="631.578947" height="600"></rect>
            <path d="M339.41104,149.348287 C340.120387,141.663693 345.085817,115.063176 344.021797,103.240724 C342.957776,91.4182719 339.765714,82.6696574 333.026916,78.1771256 C326.406343,73.6845938 313.283421,74.7486145 303.82546,76.1673087 C294.367498,77.7042275 285.145985,80.8962895 276.160922,87.0439646 C267.175858,93.0734151 257.00855,104.304745 250.033303,112.81691 C243.058056,121.329075 239.156647,127.7132 234.309442,137.998733 C229.462236,148.284266 222.841663,163.889903 221.068296,174.293661 C219.176703,184.815643 219.294928,193.209584 223.196337,200.894178 C227.097746,208.578771 235.846361,217.918509 244.358526,220.164774 C252.988916,222.41104 263.747347,219.337203 274.505779,214.726446 C285.382435,210.11569 300.396949,199.475483 309.145563,192.500237 C317.894178,185.406765 322.15026,179.495539 327.233915,172.520293 C332.199345,165.426822 337.164774,154.077268 339.174591,150.412307" id="Path" stroke="#000000" stroke-width="2" stroke-linecap="round" stroke-linejoin="round"></path>
            <path d="M375.23307,66 C365.538659,87.2804136 333.026916,160.461392 317.42128,194.15538 C301.815643,227.849368 293.8946,242.745658 281.717474,268.045705 C269.658573,293.345752 256.417427,328.458435 244.7132,345.719215 C233.127197,363.098219 221.304745,371.137487 211.846783,371.965058 C202.270597,372.79263 192.221513,358.723912 187.492532,350.56642 C182.645326,342.290704 183.709347,327.512639 183,323.020107" id="Path" stroke="#000000" stroke-width="2" stroke-linecap="round" stroke-linejoin="round"></path>
            <path d="M341.657306,140.481448 C345.913389,134.215548 358.445188,112.107563 367.193803,103.122499 C376.060642,94.1374358 385.282154,89.8813531 394.503667,86.5710665 C403.725179,83.26078 414.956509,81.3691876 422.877552,83.26078 C430.798594,85.0341478 438.128515,90.1178021 442.266373,97.3294979 C446.522456,104.541194 449.123395,114.826727 448.177599,126.649179 C447.231803,138.589855 441.793475,157.151105 436.70982,168.618884 C431.744391,180.086662 425.596716,187.416582 417.675673,195.574074 C409.872854,203.731566 399.469097,212.834854 389.538237,217.682059 C379.607377,222.41104 367.075578,225.721327 357.97229,224.302633 C348.869002,222.883938 339.883938,214.844671 335.036733,209.051669 C330.071303,203.376893 329.125507,197.229217 328.534384,189.662848 C327.943262,182.214703 329.361956,172.165619 331.489997,164.126352 C333.618039,155.96886 339.647489,144.855755 341.184408,140.954346" id="Path" stroke="#000000" stroke-width="2" stroke-linecap="round" stroke-linejoin="round"></path>
        </g>
    </g>
</svg>