<?xml version="1.0" encoding="UTF-8"?>
<svg width="208.549821px" height="288.00049px" viewBox="0 0 208.549821 288.00049" version="1.1" xmlns="http://www.w3.org/2000/svg" xmlns:xlink="http://www.w3.org/1999/xlink">
    <title>ф</title>
    <g id="letters" stroke="none" stroke-width="1" fill="none" fill-rule="evenodd">
        <g id="ф" transform="translate(-211.8393, -222.8997)">
            <rect id="low" x="0" y="0" width="631.578947" height="600"></rect>
            <path d="M312.997838,307.366113 C314.316418,303.146657 319.590738,291.938728 321.173034,282.181236 C322.887188,272.291886 324.996916,257.52379 322.75533,248.689304 C320.513744,239.854818 315.50314,231.81148 307.723518,228.910604 C300.075754,225.87787 286.889954,226.273444 276.473172,231.020332 C266.05639,235.635362 255.50775,243.151268 245.486542,257.128216 C235.465334,270.973306 221.620244,297.872337 216.60964,314.618303 C211.599036,331.364269 211.99461,348.242093 215.422918,357.867727 C218.851226,367.361503 229.268008,370.921669 237.311346,371.976533 C245.486542,373.031397 255.375892,368.680083 263.946662,364.328769 C272.385574,359.977455 281.615634,352.329691 288.340392,346.000507 C294.933292,339.539465 299.812038,332.287275 303.767778,325.694375 C307.855376,319.101475 311.019968,309.475841 312.470406,306.311249" id="Path" stroke="#000000" stroke-width="2" stroke-linecap="round" stroke-linejoin="round"></path>
            <path d="M348.599498,223.9 C339.501296,244.601706 315.898714,301.036929 294.274002,348.769525 C272.781148,396.370263 231.77331,483.132826 219.2468,509.9" id="Path" stroke="#000000" stroke-width="2" stroke-linecap="round" stroke-linejoin="round"></path>
            <path d="M315.766856,298.399769 C317.744726,294.180314 323.150904,281.126372 327.502218,273.34675 C331.853532,265.698986 335.677414,258.710512 341.87474,252.24947 C347.940208,245.788428 356.642835,239.06367 364.290599,234.976072 C371.938363,230.756616 379.849843,226.669018 388.025039,227.328308 C396.068377,227.85574 408.067455,230.361042 413.209917,238.668096 C418.352379,246.843292 420.593965,262.534394 418.747953,276.6432 C417.033799,290.883864 410.704615,308.948409 402.265703,323.584647 C393.694933,338.220885 378.531263,356.153573 367.850765,364.328769 C357.302125,372.635823 347.280918,373.690687 338.182716,373.163255 C329.084514,372.503965 318.667732,367.625219 313.393412,360.636745 C308.25095,353.648271 306.536796,341.253619 306.93237,330.968695 C307.327944,320.815629 314.448276,304.728953 315.898714,299.454633" id="Path" stroke="#000000" stroke-width="2" stroke-linecap="round" stroke-linejoin="round"></path>
        </g>
    </g>
</svg>