<?xml version="1.0" encoding="UTF-8"?>
<svg width="351.800305px" height="320.415287px" viewBox="0 0 351.800305 320.415287" version="1.1" xmlns="http://www.w3.org/2000/svg" xmlns:xlink="http://www.w3.org/1999/xlink">
    <title>Х</title>
    <g id="Page-2" stroke="none" stroke-width="1" fill="none" fill-rule="evenodd">
        <g id="Х" transform="translate(-139.9997, -53.9992)">
            <rect id="up" x="0" y="0" width="631.578947" height="600"></rect>
            <path d="M218.7,93.2145103 C231.2,86.8145103 274.1,56.8145103 294,55.1145103 C313.8,53.4145103 329.8,71.0145103 337.8,83.2145103 C345.7,95.3145103 345.1,109.31451 341.7,128.11451 C338.4,146.91451 326.4,174.71451 317.9,195.91451 C309.4,217.01451 300.7,236.91451 290.8,254.91451 C280.9,272.91451 270.8,287.21451 258.5,303.71451 C246.2,320.11451 229.3,342.71451 217,353.61451 C204.6,364.41451 193.3,366.91451 184.2,368.91451 C175.1,370.81451 168.2,368.51451 162.4,365.31451 C156.7,362.11451 153.5,356.31451 150,349.81451 C146.4,343.31451 142.5,330.11451 141,326.11451" id="Path" stroke="#000000" stroke-width="2" stroke-linecap="round" stroke-linejoin="round"></path>
            <path d="M490.8,95.8145103 C486.2,90.1145103 475.3,65.4145103 462.8,61.5145103 C450.3,57.5145103 430.4,64.7145103 415.9,72.1145103 C401.4,79.5145103 388.3,92.2145103 375.8,106.01451 C363.3,119.81451 350.8,138.91451 340.7,154.91451 C330.7,171.01451 323.6,183.11451 315.5,202.51451 C307.4,222.01451 296.4,250.41451 292.2,271.61451 C288,292.81451 287.9,314.81451 290.2,329.61451 C292.6,344.41451 299.2,353.31451 306.3,360.61451 C313.4,367.91451 323.5,373.31451 332.7,373.41451 C342,373.41451 350.6,368.81451 361.6,361.11451 C372.6,353.31451 392.6,332.61451 398.8,326.91451" id="Path" stroke="#000000" stroke-width="2" stroke-linecap="round" stroke-linejoin="round"></path>
        </g>
    </g>
</svg>