<?xml version="1.0" encoding="UTF-8"?>
<svg width="193.904124px" height="148.007126px" viewBox="0 0 193.904124 148.007126" version="1.1" xmlns="http://www.w3.org/2000/svg" xmlns:xlink="http://www.w3.org/1999/xlink">
    <title>х</title>
    <g id="Page-2" stroke="none" stroke-width="1" fill="none" fill-rule="evenodd">
        <g id="х" transform="translate(-218.4, -226.238)">
            <rect id="low" x="0" y="0" width="631.578947" height="600"></rect>
            <path d="M254.353545,246.106973 C258.098568,243.269835 268.993179,231.921282 277.050652,229.084143 C284.99464,226.247005 295.548794,227.041403 302.471412,229.084143 C309.507515,231.126883 314.954821,233.73705 318.813329,241.227095 C322.671837,248.830626 326.870802,262.335405 325.962918,274.137901 C325.055034,286.053882 318.359387,301.487915 313.366023,312.382526 C308.37266,323.390623 302.357927,331.448096 296.002737,339.73254 C289.534061,348.13047 281.817045,357.322798 274.780941,362.543133 C267.858324,367.876953 260.368278,370.48712 254.013088,371.621976 C247.771384,372.643346 242.77802,372.643346 236.990258,368.898323 C231.202496,365.1533 222.350624,352.44292 219.4,349.15184" id="Path" stroke="#000000" stroke-width="2" stroke-linecap="round" stroke-linejoin="round"></path>
            <path d="M411.304041,249.965482 C409.261301,247.128343 404.154452,236.233732 398.820632,233.056137 C393.486812,229.765056 386.904651,228.857172 379.414605,230.672941 C371.811074,232.488709 360.916463,237.936015 353.312932,243.723777 C345.709401,249.625025 339.467697,256.093701 333.79342,265.626486 C328.005658,275.045785 322.785323,289.004506 318.813329,300.580031 C314.841335,312.155555 309.847972,324.75245 310.074943,334.966148 C310.301914,345.179846 314.387393,355.620515 320.06167,361.975705 C325.849432,368.444381 336.063131,372.870317 344.46106,373.210773 C352.972475,373.664715 362.732231,369.125294 370.789704,364.699358 C378.733692,360.273422 388.94739,349.605782 392.578927,346.655158" id="Path" stroke="#000000" stroke-width="2" stroke-linecap="round" stroke-linejoin="round"></path>
        </g>
    </g>
</svg>