<?xml version="1.0" encoding="UTF-8"?>
<svg width="263.317183px" height="397.996909px" viewBox="0 0 263.317183 397.996909" version="1.1" xmlns="http://www.w3.org/2000/svg" xmlns:xlink="http://www.w3.org/1999/xlink">
    <title>Ц</title>
    <g id="Page-2" stroke="none" stroke-width="1" fill="none" fill-rule="evenodd">
        <g id="Ц" transform="translate(-184.011, -68.4112)">
            <rect id="up" x="0" y="0" width="631.578947" height="600"></rect>
            <path d="M217.160496,110.065547 C223.792467,104.880551 245.014774,86.0698695 256.952322,79.1967358 C268.88987,72.4441834 279.501024,69.5502324 288.785784,69.4296511 C297.949962,69.3090698 310.128672,69.4296511 312.178554,78.3526668 C314.107855,87.1551012 310.249254,102.589507 300.60275,122.606001 C291.076828,142.622496 270.095683,172.647238 254.90244,198.331053 C239.588616,224.014869 220.175028,256.692399 209.081549,276.588312 C198.108651,296.604807 192.803074,306.854217 188.823892,317.947696 C184.844709,329.041175 184.844709,336.03489 185.085872,343.269767 C185.327034,350.504645 186.77401,356.774872 190.270867,361.477543 C193.767725,366.180213 197.746907,371.124046 206.308179,371.244627 C214.869451,371.365209 228.012812,370.762302 241.397335,362.20103 C254.90244,353.639759 264.307781,348.454763 287.097645,320.118159 C309.88751,291.781555 351.970381,233.299628 378.377684,192.301989 C404.784987,151.304349 440.838794,82.3318495 445.662046,74.3734841 C450.485297,66.2945375 428.177758,106.930433 407.196613,144.069471 C386.094887,181.20851 336.535976,260.430419 319.654595,297.207713 C302.773213,334.105589 304.34077,352.433946 305.787746,364.9744 C307.234721,377.394273 318.931107,374.379741 328.095285,372.45044 C337.380045,370.400558 352.090962,359.789405 361.255141,353.278015 C370.298738,346.766625 379.82466,334.587914 382.718611,333.26152 C385.612562,331.935126 383.442098,332.899776 378.498265,345.199068 C373.554432,357.49836 361.496303,390.17589 352.81445,407.057271 C344.253178,423.938652 335.571325,436.599688 326.889472,446.246192 C318.087038,456.013276 306.631815,463.85106 300.482169,465.177455 C294.332523,466.62443 290.473922,461.077691 289.991596,454.566301 C289.38869,448.175492 292.644385,435.032131 297.347055,426.350278 C301.929144,417.547844 306.270071,411.759942 317.845875,402.113438 C329.301098,392.346354 347.026548,380.529387 366.560717,368.109514 C386.215468,355.689641 424.077994,334.346752 435.533217,327.594199" id="Path" stroke="#000000" stroke-width="2" stroke-linecap="round" stroke-linejoin="round"></path>
        </g>
    </g>
</svg>