<?xml version="1.0" encoding="UTF-8"?>
<svg width="174.116783px" height="214.011338px" viewBox="0 0 174.116783 214.011338" version="1.1" xmlns="http://www.w3.org/2000/svg" xmlns:xlink="http://www.w3.org/1999/xlink">
    <title>ц</title>
    <g id="Page-2" stroke="none" stroke-width="1" fill="none" fill-rule="evenodd">
        <g id="ц" transform="translate(-228.7502, -225.4168)">
            <rect id="low" x="0" y="0" width="631.578947" height="600"></rect>
            <path d="M283.358786,226.417001 C279.690206,233.492119 268.356916,254.12788 261.150777,268.867708 C254.010149,283.607537 245.297273,302.540028 240.318486,314.986995 C235.339699,327.433961 232.981327,335.033162 231.409078,343.483997 C229.90234,351.934832 228.788664,361.040771 231.081527,365.757516 C233.374389,370.539772 237.763582,373.815289 245.297273,372.04651 C252.830963,370.21222 267.17773,362.285468 276.152648,355.013819 C285.062055,347.74217 292.006152,337.457045 298.950249,328.351106 C305.959857,319.310678 311.135175,311.187395 317.81723,300.574718 C324.499286,289.896531 332.098487,276.204868 339.108094,264.413005 C346.117702,252.686652 361.971206,225.041284 360.005896,229.88905 C357.975075,234.671305 333.867266,276.335888 326.988679,293.303069 C320.175603,310.27025 319.782541,319.179657 318.799886,331.757645 C317.882741,344.401142 318.668865,362.547509 321.289279,368.967524 C323.975203,375.387538 329.347052,372.963655 334.784411,370.343241 C340.22177,367.722827 348.476074,358.87893 353.847923,353.37606 C359.219772,347.80768 367.670607,331.299072 367.081014,337.129493 C366.556931,342.894404 354.568537,376.173662 350.441385,388.162056 C346.248722,400.15045 344.807495,403.098416 342.05606,409.125368 C339.304625,415.152321 337.928908,419.541514 334.063797,424.32377 C330.198687,429.040515 323.254589,435.722571 318.930906,437.49135 C314.541713,439.260129 309.104354,438.539516 307.859657,434.936446 C306.680471,431.333377 304.780671,425.240914 311.659257,415.741914 C318.537844,406.308423 334.194818,392.092677 349.196688,378.073462 C364.264069,363.988737 393.088623,339.225825 401.86701,331.430093" id="Path" stroke="#000000" stroke-width="2" stroke-linecap="round" stroke-linejoin="round"></path>
        </g>
    </g>
</svg>