<?xml version="1.0" encoding="UTF-8"?>
<svg width="191.99426px" height="332.012269px" viewBox="0 0 191.99426 332.012269" version="1.1" xmlns="http://www.w3.org/2000/svg" xmlns:xlink="http://www.w3.org/1999/xlink">
    <title>Ч</title>
    <g id="Page-2" stroke="none" stroke-width="1" fill="none" fill-rule="evenodd">
        <g id="Ч" transform="translate(-220, -41.9966)">
            <rect id="up" x="0" y="0" width="631.578947" height="600"></rect>
            <path d="M221,86.8540576 C224.841059,82.9039396 234.443706,70.445875 244.349595,63.1533494 C254.154404,55.8608238 272.146733,41.680913 280.233173,43.098904 C288.319613,44.4156101 296.001731,56.2659641 292.767155,71.3574407 C289.633659,86.5502024 269.316479,115.82159 261.128958,133.647763 C253.042518,151.575222 245.764722,164.539712 243.844193,178.415768 C242.024744,192.291823 244.551756,209.814142 250.111184,216.802812 C255.670611,223.791483 265.172178,224.804333 277.200758,220.55036 C289.128257,216.296387 308.232471,203.331897 322.0805,191.076402 C335.827448,178.922193 345.227934,169.603966 359.985687,147.422534 C374.844521,125.241102 409.414051,60.7225076 410.930259,58.2916657 C412.547547,55.7595388 385.660134,102.958385 369.386174,132.533628 C353.112213,162.10887 329.055054,202.825471 313.185416,235.743122 C297.214697,268.762057 278.818046,307.858097 273.966182,330.444669 C269.114318,353.031242 275.987792,366.097017 283.872071,371.363841 C291.75635,376.630665 309.142196,368.021433 321.372936,361.944328 C333.603677,355.867224 351.090603,339.459041 357.054353,335.002498" id="Path" stroke="#000000" stroke-width="2" stroke-linecap="round" stroke-linejoin="round"></path>
        </g>
    </g>
</svg>