<?xml version="1.0" encoding="UTF-8"?>
<svg width="129.000297px" height="150.111942px" viewBox="0 0 129.000297 150.111942" version="1.1" xmlns="http://www.w3.org/2000/svg" xmlns:xlink="http://www.w3.org/1999/xlink">
    <title>ч</title>
    <g id="Page-2" stroke="none" stroke-width="1" fill="none" fill-rule="evenodd">
        <g id="ч" transform="translate(-250.9999, -224.9327)">
            <rect id="low" x="0" y="0" width="631.578947" height="600"></rect>
            <path d="M252,268.651843 C254.819765,264.184722 263.997823,248.687671 268.80801,242.069714 C273.618198,235.451756 277.046147,231.370682 280.861123,228.944098 C284.62081,226.572663 289.596865,224.311528 291.642577,227.785955 C293.633,231.260383 289.762734,244.772047 292.858946,249.790664 C296.010448,254.809282 303.806269,257.015268 310.385721,257.952812 C316.965172,258.835206 325.645625,257.732213 332.446234,255.250479 C339.191554,252.768745 345.494558,247.694978 351.078798,243.062407 C356.607749,238.429837 366.946887,223.815181 365.785808,227.344758 C364.680017,230.874336 353.12451,247.915576 344.278189,264.295021 C335.376578,280.674466 318.568568,310.400126 312.486722,325.786877 C306.404876,341.118479 306.294297,348.563681 307.731824,356.45008 C309.224641,364.28133 316.135829,370.733839 321.333043,372.884675 C326.530257,375.090661 329.239443,374.042818 338.859817,369.575696 C348.480192,365.163725 372.30997,350.107871 379,346.247396" id="Path" stroke="#000000" stroke-width="2" stroke-linecap="round" stroke-linejoin="round"></path>
        </g>
    </g>
</svg>