<?xml version="1.0" encoding="UTF-8"?>
<svg width="339.717371px" height="290.011567px" viewBox="0 0 339.717371 290.011567" version="1.1" xmlns="http://www.w3.org/2000/svg" xmlns:xlink="http://www.w3.org/1999/xlink">
    <title>ле</title>
    <g id="Page-2" stroke="none" stroke-width="1" fill="none" fill-rule="evenodd">
        <g id="ле" transform="translate(-145.9974, -84.7642)">
            <rect id="up" x="0" y="0" width="631.578947" height="600"></rect>
            <path d="M166.233391,126.769237 C170.692526,123.301021 183.574471,112.070607 192.905623,106.042518 C202.154199,100.014428 212.724,93.7386089 222.055152,90.4355462 C231.386304,87.2150599 243.690213,84.2423034 248.975114,86.637024 C254.260014,88.9491679 255.33351,93.4908792 253.599402,104.55614 C251.865294,115.6214 247.736465,132.549597 238.735619,152.863433 C229.734773,173.177269 209.420937,208.354887 199.842055,226.439156 C190.180596,244.606001 189.189677,245.018884 180.93202,261.451621 C172.674364,277.884359 155.498437,307.94223 150.37869,325.200733 C145.341519,342.541813 146.415014,357.488172 150.461266,365.332946 C154.424942,373.260296 164.251553,375.242134 174.573625,372.764837 C184.978272,370.204963 200.998127,359.139703 212.641423,350.30401 C224.284719,341.468317 232.542376,334.201579 244.433402,319.668103 C256.241852,305.134627 270.775328,284.077601 283.822426,262.938 C296.952101,241.798398 306.943865,221.649715 323.046296,192.830492 C339.148728,164.01127 381.510508,87.9582491 380.271859,90.1878164 C379.115787,92.4999604 334.689593,171.525737 315.944712,206.538203 C297.19983,241.550668 277.794336,276.397981 268.050301,300.262609 C258.306266,324.127238 254.59032,338.165254 257.397924,349.643398 C260.122951,361.121541 270.445022,371.691342 284.813345,369.048891 C299.181668,366.489018 324.367522,353.854803 343.690439,334.201579 C363.095933,314.548356 385.804489,275.489638 401.081155,251.294703 C416.35782,227.182345 421.560144,215.043589 435.433007,189.2797 C449.305871,163.433234 489.107778,87.5453662 484.318337,96.5462123 C479.528896,105.629635 425.854125,207.033662 406.778938,243.615082 C387.786327,280.113926 376.968796,295.968627 370.197518,315.869581 C363.343662,335.770534 363.426239,353.854803 365.903536,363.020802 C368.380833,372.186801 376.555913,373.838332 384.978724,370.700423 C393.401534,367.562513 408.017586,352.038118 416.60555,344.275921 C425.276089,336.513723 433.45117,327.595454 436.836809,324.209814" id="Path" stroke="#000000" stroke-width="2" stroke-linecap="round" stroke-linejoin="round"></path>
        </g>
    </g>
</svg>