<?xml version="1.0" encoding="UTF-8"?>
<svg width="240.804922px" height="150.014541px" viewBox="0 0 240.804922 150.014541" version="1.1" xmlns="http://www.w3.org/2000/svg" xmlns:xlink="http://www.w3.org/1999/xlink">
    <title>ш</title>
    <g id="Page-2" stroke="none" stroke-width="1" fill="none" fill-rule="evenodd">
        <g id="ш" transform="translate(-205.6281, -223.821)">
            <rect id="low" x="0" y="0" width="631.578947" height="600"></rect>
            <path d="M255.492951,224.821278 C250.678802,235.10605 234.485756,266.94508 226.389233,286.639326 C218.29271,306.224159 208.883237,329.091366 207.023225,342.549101 C205.163213,356.006835 210.743249,362.899821 215.119748,367.057495 C219.605659,371.215169 225.076283,371.433994 233.719869,367.495145 C242.254042,363.556296 254.398826,355.459773 266.653023,343.4244 C279.016633,331.279616 293.677905,314.648919 307.354464,295.064087 C321.140436,275.588666 349.150029,224.49304 349.040617,226.353052 C348.821792,228.103652 315.5604,286.967563 306.479164,305.786509 C297.397929,324.605455 295.537917,328.653716 294.553205,339.157314 C293.568492,349.660911 295.647329,363.556296 300.570891,368.808095 C305.494452,374.059893 315.669812,373.622243 324.094573,370.558694 C332.519333,367.495145 339.084082,363.118646 351.119454,350.426799 C363.154826,337.625539 381.754947,314.977157 396.197394,294.079374 C410.63984,273.181592 438.321196,222.523616 437.774134,225.040103 C437.336484,227.55659 401.77743,287.733451 393.352669,309.178296 C384.818496,330.623141 385.256146,343.643225 386.787921,353.818585 C388.210283,363.993946 395.431506,370.121044 402.433905,370.011632 C409.545716,369.902219 421.799913,358.523322 428.911724,353.052698 C436.132947,347.582074 442.697695,339.813789 445.433007,337.187889" id="Path" stroke="#000000" stroke-width="2" stroke-linecap="round" stroke-linejoin="round"></path>
        </g>
    </g>
</svg>