<?xml version="1.0" encoding="UTF-8"?>
<svg width="365.975084px" height="391.024227px" viewBox="0 0 365.975084 391.024227" version="1.1" xmlns="http://www.w3.org/2000/svg" xmlns:xlink="http://www.w3.org/1999/xlink">
    <title>Щ</title>
    <g id="Page-2" stroke="none" stroke-width="1" fill="none" fill-rule="evenodd">
        <g id="Щ" transform="translate(-133.025, -55.0021)">
            <rect id="up" x="0" y="0" width="631.578947" height="600"></rect>
            <path d="M157.258263,96.8188897 C163.2488,92.631202 180.142114,77.9144707 193.201484,71.0945221 C206.380666,64.2745735 227.347545,55.5402533 236.213539,56.0188462 C245.079534,56.6170873 247.71537,61.7619608 246.277641,74.5643205 C244.839912,87.3666802 239.448429,107.347933 227.826787,132.713356 C216.205146,158.078779 192.003377,196.126913 176.547792,226.756858 C161.092207,257.386803 139.406463,295.075993 135.093277,316.612672 C130.78009,338.149352 139.885706,353.10538 150.908294,355.976937 C161.930882,358.728846 186.851515,343.413874 201.588236,333.60272 C216.324957,323.671918 225.790005,313.38217 239.328618,296.511771 C252.867232,279.641372 267.843574,256.070672 282.819916,232.02138 C297.676447,208.091736 312.7726,180.931589 328.707428,152.455313 C344.642256,124.098684 382.861881,53.2669371 378.069452,61.5226644 C373.396833,69.8980399 320.440487,164.539783 300.551905,202.587917 C280.783133,240.636052 267.843574,269.471273 259.337011,289.572174 C250.830449,309.673076 249.632342,313.860763 249.632342,323.312973 C249.512531,332.765182 253.825717,341.619151 259.09739,346.285431 C264.249252,351.07136 270.239788,354.301862 281.022755,351.430305 C291.68591,348.558748 309.178278,340.183372 323.435756,329.175736 C337.573423,318.048451 347.517714,312.544633 366.208189,284.666597 C385.018475,256.668914 415.690024,197.562692 435.698417,161.428929 C455.70681,125.295166 492.129274,56.7367355 486.378358,67.9836683 C480.627443,79.1109529 421.920182,187.512242 401.312735,228.551582 C380.825099,269.590921 368.724215,294.118807 363.212921,314.339356 C357.701627,334.559906 363.692164,343.772819 368.484593,349.994526 C373.277023,356.216234 383.460935,353.942918 391.847687,351.669601 C400.234438,349.276637 409.819297,341.978095 418.565481,335.876036 C427.311665,329.654329 442.76725,312.06604 444.085168,314.459004 C445.403086,316.851969 435.219174,333.124127 426.592801,350.233823 C417.966428,367.343518 401.791978,401.443261 392.087308,416.99753 C382.262828,432.671447 375.193994,441.166471 367.885539,444.157677 C360.696895,447.029234 348.835632,442.243305 348.4762,434.585819 C348.116768,426.928333 350.15355,414.365269 365.609135,397.973463 C381.06472,381.581657 423.357911,350.353471 441.0899,336.234981 C458.702078,321.996842 461.936968,319.723526 471.402016,312.903578 C480.867065,306.083629 493.567003,298.067198 498,295.195641" id="Path" stroke="#000000" stroke-width="2" stroke-linecap="round" stroke-linejoin="round"></path>
        </g>
    </g>
</svg>