<?xml version="1.0" encoding="UTF-8"?>
<svg width="277.049843px" height="229.000642px" viewBox="0 0 277.049843 229.000642" version="1.1" xmlns="http://www.w3.org/2000/svg" xmlns:xlink="http://www.w3.org/1999/xlink">
    <title>щ</title>
    <g id="Page-2" stroke="none" stroke-width="1" fill="none" fill-rule="evenodd">
        <g id="щ" transform="translate(-176.9503, -224.9997)">
            <rect id="low" x="0" y="0" width="631.578947" height="600"></rect>
            <path d="M222.761321,226 C218.767,235.088813 205.955028,262.655709 198.720032,280.833335 C191.485036,298.935847 182.215197,321.39498 179.351344,334.840414 C176.412127,348.285848 178.823792,355.647035 181.310822,361.430826 C183.797852,367.214616 187.867538,370.744981 194.424253,369.46804 C200.905603,368.115986 209.873984,362.482424 220.42502,353.543839 C231.051421,344.680368 245.9736,330.183336 257.956563,316.061875 C269.939525,301.940413 282.977591,283.537444 292.24743,268.81507 C301.517268,254.092695 316.062625,222.694977 313.575595,227.727626 C311.088565,232.835388 285.841444,281.659591 277.400615,299.236303 C268.959786,316.88813 265.643746,323.57329 263.005987,333.338131 C260.368228,343.102971 260.292863,351.440643 261.498696,357.825346 C262.779893,364.210049 266.246662,369.242698 270.467077,371.646351 C274.612127,374.050004 280.490561,374.500689 286.670453,372.247264 C292.850346,369.993839 298.276593,367.740415 307.621796,358.125803 C316.967,348.511191 331.889179,328.756167 342.741674,314.484477 C353.518803,300.287902 363.165465,287.443381 372.586033,272.871234 C381.931236,258.374202 400.546278,224.19726 399.038987,227.352055 C397.456332,230.431735 371.304835,274.673974 363.165465,291.800002 C355.026094,308.850915 351.936148,317.7895 350.278128,329.657537 C348.620108,341.45046 350.353492,356.09772 353.217345,362.78288 C356.081198,369.46804 360.904528,371.721465 367.461244,369.768497 C374.093323,367.815529 386.076286,356.62352 392.708366,351.065072 C399.41581,345.581738 407.027629,334.164386 407.479816,336.56804 C407.932003,339.046807 400.546278,354.294981 395.496854,365.712333 C390.447429,377.129684 384.041443,392.002288 377.258634,404.921923 C370.55119,417.916672 361.130622,435.343156 355.026094,443.305257 C348.846201,451.342472 344.248964,452.844755 340.405373,452.994983 C336.486416,453.145212 332.190637,449.915303 331.73845,444.131513 C331.286263,438.272608 331.436992,426.855257 337.692249,418.0669 C344.022871,409.278544 350.428857,405.072151 369.646815,391.32626 C388.864774,377.505255 439.132924,344.605254 453,335.215985" id="Path" stroke="#000000" stroke-width="2" stroke-linecap="round" stroke-linejoin="round"></path>
        </g>
    </g>
</svg>