<?xml version="1.0" encoding="UTF-8"?>
<svg width="118.000317px" height="148.013976px" viewBox="0 0 118.000317 148.013976" version="1.1" xmlns="http://www.w3.org/2000/svg" xmlns:xlink="http://www.w3.org/1999/xlink">
    <title>ъ</title>
    <g id="Page-2" stroke="none" stroke-width="1" fill="none" fill-rule="evenodd">
        <g id="ъ" transform="translate(-256.9998, -225.9997)">
            <rect id="up" x="0" y="0" width="631.578947" height="600"></rect>
            <path d="M258,266.881024 C259.957336,263.392053 264.490115,252.565979 269.641,246.203737 C274.791885,239.841495 285.660252,227.732711 288.90531,228.656262 C292.098859,229.579814 286.329867,246.306354 288.956819,251.745045 C291.532261,257.183736 299.104062,260.570091 304.564,261.185791 C310.023938,261.801492 316.101983,258.363829 321.61343,255.336633 C327.124877,252.309437 333.305939,247.640372 337.632682,243.022616 C341.959425,238.404859 348.295014,224.089814 347.522381,227.527477 C346.69824,231.016449 337.323629,252.719905 332.842359,263.853829 C328.361089,274.987753 325.013014,281.914387 320.583253,294.38233 C316.153492,306.850272 307.5,326.24485 306.212284,338.661484 C304.976071,351.02681 307.396987,363.289519 312.959943,368.676901 C318.47139,374.012975 330.57597,374.012975 339.383983,370.831854 C348.191996,367.702041 360.090541,359.287463 365.859532,349.795408 C371.628523,340.303353 373.843403,323.679429 373.99793,313.930832 C374.100948,304.182235 370.340802,296.896442 366.735182,291.252517 C363.129563,285.659901 358.133204,281.19607 352.312704,280.22121 C346.492204,279.195042 337.27212,282.427471 331.709164,285.35205 C326.146208,288.225321 321.14985,295.459806 319.037987,297.512143" id="Path" stroke="#000000" stroke-width="2" stroke-linecap="round" stroke-linejoin="round"></path>
        </g>
    </g>
</svg>