<?xml version="1.0" encoding="UTF-8"?>
<svg width="179.998806px" height="151.015863px" viewBox="0 0 179.998806 151.015863" version="1.1" xmlns="http://www.w3.org/2000/svg" xmlns:xlink="http://www.w3.org/1999/xlink">
    <title>ы</title>
    <g id="Page-2" stroke="none" stroke-width="1" fill="none" fill-rule="evenodd">
        <g id="ы" transform="translate(-226.0012, -224.9956)">
            <rect id="up" x="0" y="0" width="631.578947" height="600"></rect>
            <path d="M273.039691,226.671802 C269.037743,234.523093 256.148355,258.406388 249.131954,273.834448 C242.115553,289.262508 234.527446,306.941637 230.889312,319.185257 C227.251178,331.483782 226.471578,339.774305 227.303152,347.515787 C228.186698,355.312173 231.357072,361.351627 236.034673,365.90867 C240.712273,370.465713 247.572754,375.956125 255.420728,374.858043 C263.216729,373.814864 275.638358,365.90867 282.914625,359.429983 C290.242866,352.951296 296.011907,344.001923 299.286227,336.095729 C302.560547,328.244438 303.755934,319.130353 302.612521,312.157529 C301.417134,305.129801 296.947427,297.498127 292.3218,294.094071 C287.696172,290.635111 279.692278,291.843002 274.858757,291.568481 C270.025237,291.293961 258.331235,293.215605 263.320676,292.446947 C268.310117,291.623385 292.00996,289.262508 304.847374,286.682014 C317.684789,284.156424 330.210364,281.411218 340.241219,277.128696 C350.324047,272.846174 358.639781,266.257678 365.136448,261.041786 C371.633116,255.77099 374.49165,251.323756 379.273197,245.558822 C384.054744,239.793889 395.125065,223.04813 393.721785,226.452186 C392.318505,229.856242 376.882423,254.672907 370.801542,266.092966 C364.720662,277.513025 361.498315,284.925082 357.340448,294.917633 C353.18258,304.965088 348.19314,315.506681 345.802366,326.26789 C343.411592,337.029099 342.164232,351.853213 343.099752,359.539791 C344.035273,367.226369 347.777353,369.971575 351.415487,372.222645 C355.053621,374.528618 359.367408,375.846317 365.084475,373.210919 C370.749569,370.575521 378.961357,363.10856 385.613944,356.46516 C392.266532,349.821761 401.777653,337.193811 405,333.295618" id="Path" stroke="#000000" stroke-width="2" stroke-linecap="round" stroke-linejoin="round"></path>
        </g>
    </g>
</svg>