<?xml version="1.0" encoding="UTF-8"?>
<svg width="72.0072986px" height="149.002007px" viewBox="0 0 72.0072986 149.002007" version="1.1" xmlns="http://www.w3.org/2000/svg" xmlns:xlink="http://www.w3.org/1999/xlink">
    <title>ь</title>
    <g id="Page-2" stroke="none" stroke-width="1" fill="none" fill-rule="evenodd">
        <g id="ь" transform="translate(-279.9984, -224.9998)">
            <rect id="up" x="0" y="0" width="631.578947" height="600"></rect>
            <path d="M323.920675,226 C318.750758,237.376738 299.827856,276.746239 292.901171,294.46002 C285.924292,312.1738 283.765977,321.654415 282.159789,332.232786 C280.503408,342.811156 280.453214,351.34371 283.113463,357.930242 C285.823905,364.516775 293.101944,369.656266 298.271862,371.702083 C303.491972,373.797798 307.908989,373.348716 314.283548,370.404736 C320.658106,367.510653 330.596394,361.273406 336.469019,354.237792 C342.341643,347.202178 347.2104,336.57391 349.418909,328.240948 C351.677611,319.957884 351.22587,310.577065 349.870649,304.339819 C348.515428,298.052674 345.503826,293.661652 341.438162,290.717672 C337.372499,287.773691 331.550068,286.176956 325.526863,286.675936 C319.503658,287.174916 311.472719,290.468182 305.298934,293.811346 C299.074956,297.15451 291.094209,304.439615 288.28338,306.585227" id="Path" stroke="#000000" stroke-width="2" stroke-linecap="round" stroke-linejoin="round"></path>
        </g>
    </g>
</svg>