<?xml version="1.0" encoding="UTF-8"?>
<svg width="218.49325px" height="299.66121px" viewBox="0 0 218.49325 299.66121" version="1.1" xmlns="http://www.w3.org/2000/svg" xmlns:xlink="http://www.w3.org/1999/xlink">
    <title>Э</title>
    <g id="Page-2" stroke="none" stroke-width="1" fill="none" fill-rule="evenodd">
        <g id="Э" transform="translate(-206.9998, -75.0004)">
            <rect id="up" x="0" y="0" width="631.578947" height="600"></rect>
            <path d="M296.2,115.000722 C302.4,110.500722 321.3,94.300722 333.1,87.900722 C344.9,81.400722 355.6,76.800722 366.9,76.100722 C378.2,75.400722 391.4,78.400722 400.7,83.500722 C410,88.700722 419.7,94.100722 422.7,106.900722 C425.7,119.700722 425.3,137.200722 418.6,160.400722 C412,183.700722 399.1,217.800722 382.9,246.300722 C366.7,274.900722 340.3,311.200722 321.4,331.700722 C302.4,352.200722 285.3,363.200722 269.2,369.300722 C253,375.500722 234.6,374.900722 224.4,368.700722 C214.2,362.600722 210.7,338.600722 208,332.600722" id="Path" stroke="#000000" stroke-width="2" stroke-linecap="round" stroke-linejoin="round"></path>
            <path d="M298.2,231.500722 C313.9,231.100722 376.5,229.400722 392.2,229.000722" id="Path" stroke="#000000" stroke-width="2" stroke-linecap="round" stroke-linejoin="round"></path>
        </g>
    </g>
</svg>