<?xml version="1.0" encoding="UTF-8"?>
<svg width="125.002052px" height="147.015146px" viewBox="0 0 125.002052 147.015146" version="1.1" xmlns="http://www.w3.org/2000/svg" xmlns:xlink="http://www.w3.org/1999/xlink">
    <title>э</title>
    <g id="Page-2" stroke="none" stroke-width="1" fill="none" fill-rule="evenodd">
        <g id="э" transform="translate(-253, -225.9853)">
            <rect id="low" x="1.13686838e-13" y="0" width="631.578947" height="600"></rect>
            <path d="M283.193695,258.127815 C286.047967,255.82406 294.961308,248.311816 300.219178,244.505613 C305.527122,240.749491 309.382893,238.095165 314.941212,235.390757 C320.499532,232.686349 327.109425,229.431043 333.519018,228.229084 C339.928612,227.027125 346.88903,226.225819 353.398773,228.179003 C359.908516,230.132186 368.571482,234.339043 372.477328,239.998266 C376.383174,245.707572 377.534898,253.870877 376.783774,262.184427 C376.082725,270.497977 371.325605,281.015118 368.070733,289.979729 C364.765786,298.94434 361.310615,307.508298 357.054244,315.972093 C352.747799,324.435888 348.741803,332.699356 342.432359,340.762498 C336.122916,348.82564 327.760399,359.042291 319.147508,364.25078 C310.534617,369.45927 298.666854,372.364004 290.755012,371.963351 C282.793095,371.512616 277.685451,366.654699 271.576307,361.746699 C265.417088,356.788618 256.954422,345.520252 254,342.264947" id="Path" stroke="#000000" stroke-width="2" stroke-linecap="round" stroke-linejoin="round"></path>
            <path d="M314,296.5 C322.15,296.5 354.85,296.5 363,296.5" id="Path" stroke="#000000" stroke-width="2" stroke-linecap="round" stroke-linejoin="round"></path>
        </g>
    </g>
</svg>