<?xml version="1.0" encoding="UTF-8"?>
<svg width="343.00131px" height="277.004691px" viewBox="0 0 343.00131 277.004691" version="1.1" xmlns="http://www.w3.org/2000/svg" xmlns:xlink="http://www.w3.org/1999/xlink">
    <title>Ю</title>
    <g id="Page-3" stroke="none" stroke-width="1" fill="none" fill-rule="evenodd">
        <g id="Ю" transform="translate(-143.9994, -96.9996)">
            <rect id="up" x="0" y="0" width="631.578947" height="600"></rect>
            <path d="M228.165124,131.530323 C232.908709,130.626484 246.612397,129.421366 256.92781,125.95665 C267.243224,122.416615 283.130467,113.980787 290.057606,110.666711 C296.984745,107.277316 299.770659,99.8959658 298.415349,105.695598 C297.06004,111.49523 296.00591,115.336545 281.925747,145.313864 C267.845584,175.291183 230.649859,251.36428 214.009667,285.634833 C197.369474,319.905386 190.894105,337.304283 182.084591,351.012504 C173.275077,364.796045 167.176183,367.959481 161.077289,368.110121 C154.9031,368.33608 145.867701,359.975572 145.114751,352.292942 C144.361801,344.685633 147.223011,334.894046 156.409,322.315623 C165.519693,309.66188 183.364606,290.304667 199.929504,276.445805 C216.419106,262.662264 238.254653,248.954043 255.647796,239.313096 C272.965643,229.672149 294.876485,221.83888 304.062474,218.600124 C313.248462,215.286049 312.871987,213.177092 310.688433,219.805243 C308.580173,226.433394 296.30709,243.003771 291.33762,258.29371 C286.292856,273.508329 280.946912,295.12514 280.796322,311.243598 C280.645732,327.286736 283.582237,344.384353 290.358786,354.627859 C297.06004,364.871365 310.010778,371.650156 321.229731,372.855274 C332.448685,373.985073 345.625308,368.33608 357.597211,361.63261 C369.569114,354.929139 380.411593,345.966071 393.061151,332.559129 C405.710709,319.076867 419.790872,303.786928 433.49456,280.81436 C447.198248,257.917111 466.398471,218.524804 475.057394,194.949676 C483.791613,171.374549 487.255183,153.900332 485.598693,139.363592 C483.942203,124.751532 473.77738,114.282066 465.118456,107.352636 C456.459532,100.498525 444.412334,97.7870087 433.79574,98.0129684 C423.179147,98.1636082 413.240208,101.402364 401.418895,108.331794 C389.672876,115.261225 374.011519,128.442207 363.01845,139.589552 C351.950087,150.812216 344.044113,162.034881 335.309894,175.441823 C326.575675,188.848765 314.754362,212.499213 310.613138,219.880562" id="Path" stroke="#000000" stroke-width="2" stroke-linecap="round" stroke-linejoin="round"></path>
        </g>
    </g>
</svg>