<?xml version="1.0" encoding="UTF-8"?>
<svg width="192.011482px" height="149.007503px" viewBox="0 0 192.011482 149.007503" version="1.1" xmlns="http://www.w3.org/2000/svg" xmlns:xlink="http://www.w3.org/1999/xlink">
    <title>ю</title>
    <g id="Page-3" stroke="none" stroke-width="1" fill="none" fill-rule="evenodd">
        <g id="ю" transform="translate(-223.9925, -224.9998)">
            <rect id="low" x="0" y="0" width="631.578947" height="600"></rect>
            <path d="M290.859529,226 C286.665862,235.085834 276.758323,256.233895 265.95963,280.35835 C255.108516,304.482805 230.523142,360.303244 225.962529,370.746731 C221.401916,381.190218 234.297443,352.470628 238.543531,343.019273 C242.789619,333.515699 248.136544,319.312557 251.439057,313.934161 C254.74157,308.607983 254.269783,310.801115 258.411029,310.801115 C262.552275,310.801115 269.838772,314.090813 276.181694,313.986379 C282.524616,313.829726 290.020796,311.897681 296.311296,309.913419 C302.601797,307.981373 311.827865,301.193107 313.977119,302.185238 C316.126374,303.229587 310.622186,308.346895 309.364086,315.918424 C308.053565,323.542169 305.013156,339.311835 306.271256,347.875494 C307.581777,356.386936 310.569765,363.070768 317.017528,367.09151 C323.465292,371.060035 335.626926,373.462037 344.957836,371.686645 C354.341166,369.911252 363.986601,364.637291 373.107827,356.386936 C382.229053,348.136581 393.080167,333.829004 399.737614,322.184516 C406.39506,310.540028 410.74599,298.060061 413.000086,286.46779 C415.254182,274.927737 415.988074,261.873378 413.157349,252.683109 C410.326623,243.545058 405.084539,233.832615 396.068155,231.535048 C387.05177,229.237481 369.962577,232.736049 359.059042,238.949924 C348.103086,245.163799 338.038285,258.37481 330.489684,268.922732 C322.993504,279.418436 316.650582,296.597973 313.924699,302.133021" id="Path" stroke="#000000" stroke-width="2" stroke-linecap="round" stroke-linejoin="round"></path>
        </g>
    </g>
</svg>