<?xml version="1.0" encoding="UTF-8"?>
<svg width="323.00036px" height="324.031538px" viewBox="0 0 323.00036 324.031538" version="1.1" xmlns="http://www.w3.org/2000/svg" xmlns:xlink="http://www.w3.org/1999/xlink">
    <title>Я</title>
    <g id="Page-3" stroke="none" stroke-width="1" fill="none" fill-rule="evenodd">
        <g id="Я" transform="translate(-153.9997, -49.9813)">
            <rect id="up" x="0" y="0" width="631.578947" height="600"></rect>
            <path d="M155,327.770064 C156.662531,331.787353 159.987594,344.450548 165.237693,351.8738 C170.40029,359.384385 176.350402,370.650262 186.063085,372.571574 C195.688266,374.492887 209.338523,369.689606 223.076281,363.401675 C236.901541,357.026411 248.01425,351.262474 268.664639,334.581989 C289.227526,317.901505 322.653155,288.470493 346.716108,263.4061 C370.691559,238.254375 396.329541,207.688042 412.604848,184.020967 C428.880154,160.353892 438.76784,138.870126 444.280444,121.316318 C449.793048,103.76251 449.268038,89.7019967 445.505467,78.6107845 C441.742896,67.5195723 432.292718,57.4763486 421.705019,54.8563772 C411.204821,52.2364059 395.017017,56.865022 382.241776,62.9782886 C369.379034,69.0042228 355.641276,77.3007988 344.791072,91.1866472 C334.028369,105.072496 320.465614,127.778914 317.228053,146.380711 C313.990492,164.982508 318.190571,191.531551 325.540709,202.797428 C332.803346,214.063305 344.616068,220.613234 361.153879,213.888641 C377.604189,207.076715 405.517214,188.824248 424.505072,162.013207 C443.405427,135.202167 469.56842,63.9389447 474.90602,53.0223973 C480.243621,42.1058498 464.755829,78.0867902 456.355671,96.3392576 C447.955513,114.679057 435.355276,140.267445 424.505072,162.624534 C413.654867,184.981623 403.942185,203.059426 391.166944,230.569125 C378.391704,258.166157 353.891243,305.412974 348.028632,328.119393 C342.078521,350.825812 349.953669,360.956368 355.728777,366.982302 C361.591388,373.008236 372.704097,367.418964 383.029291,364.449663 C393.354485,361.567695 406.917241,354.493772 417.679943,349.253829 C428.442646,343.926554 442.442909,335.542645 447.430503,332.748009" id="Path" stroke="#000000" stroke-width="2" stroke-linecap="round" stroke-linejoin="round"></path>
        </g>
    </g>
</svg>