<?xml version="1.0" encoding="UTF-8"?>
<svg width="173.000267px" height="148.995786px" viewBox="0 0 173.000267 148.995786" version="1.1" xmlns="http://www.w3.org/2000/svg" xmlns:xlink="http://www.w3.org/1999/xlink">
    <title>я</title>
    <g id="Page-3" stroke="none" stroke-width="1" fill="none" fill-rule="evenodd">
        <g id="я" transform="translate(-228.9998, -226.0046)">
            <rect id="low" x="0" y="0" width="631.578947" height="600"></rect>
            <path d="M230,344.343746 C231.427478,347.502895 234.46087,358.351293 238.445913,363.239033 C242.430957,368.067167 248.259826,372.358841 253.910261,373.431759 C259.560696,374.445071 265.686957,372.478054 272.229565,369.438118 C278.831652,366.457789 286.088,361.152803 293.28487,355.311358 C300.481739,349.469912 304.88313,345.893517 315.351304,334.32984 C325.819478,322.825769 346.696348,300.592514 356.034435,286.16772 C365.372522,271.802534 373.877913,257.198921 371.498783,248.019507 C369.119652,238.840093 352.465739,231.03163 341.81913,231.091237 C331.172522,231.150844 315.648696,240.62829 307.559652,248.257933 C299.530087,255.827969 295.128696,267.034007 293.463304,276.690274 C291.857391,286.406147 292.928,299.936841 297.686261,306.374352 C302.444522,312.87147 313.09113,318.057243 322.131826,315.553766 C331.172522,313.05029 343.068174,302.321105 352.049391,291.4131 C360.97113,280.445488 369.773913,260.596496 375.959652,250.046131 C382.085913,239.436159 391.840348,222.627102 388.985391,228.051301 C386.070957,233.415894 366.205217,268.345352 358.710957,282.352899 C351.276174,296.30084 347.885913,301.427006 344.198261,311.858158 C340.45113,322.28931 337.71513,335.760398 336.406609,344.820599 C335.157565,353.940406 334.97913,361.510442 336.406609,366.338576 C337.834087,371.226315 340.689043,373.670185 345.090435,373.968218 C349.551304,374.266251 356.093913,372.478054 363.112348,368.18638 C370.071304,363.894706 380.83687,354.238439 387.141565,348.158568 C393.446261,342.078696 398.680348,334.449053 401,331.70715" id="Path" stroke="#000000" stroke-width="2" stroke-linecap="round" stroke-linejoin="round"></path>
        </g>
    </g>
</svg>